<svg id="Layer_1" data-name="Layer 1" xmlns="http://www.w3.org/2000/svg" width="17.26in" height="6.14in" viewBox="0 0 1242.62 442.22"><title>Artboard 1</title><path d="M242.2,215.38a177.28,177.28,0,0,0-13.57-24.69c-26.63-40.62-51.13-82.56-71-126.94q-9.25-20.7-17.15-42c-16,41.25-34.43,81.69-57.85,119.19C63.12,172.15,39.83,202,29.85,237.42c-6.22,22-6.89,45.84-.36,67.78S50,347.08,69.26,359.43c19.1,12.22,42.25,16.56,64.9,17.46,28.26,1.13,58.08-3.27,80.64-20.32,15.48-11.7,26.49-28.68,32.94-47,11.4-32.27,7.68-64.57-5.54-94.19Zm-27,140.29s8-14.45-60.78-72.25c-24.14-20.28-43.46-43.54-52.15-74.24s9.18-120.52,9.17-120.49c-4.59,25.67-3.76,48.31,6.44,72.31,7.82,18.41,12.11,25.1,23.72,38.3,19.29,21.93,40.29,39,54.7,64.64,14.07,25,21.5,62.93,18.91,91.73Z" fill="#7b9ea6"/><path d="M286.29,178.56V22.16h90.62l3.68,20.24H312.05V89.09h52L368,109.33H312.05v49h74.52l3.91,20.24Zm115.92-7.82L410,152.8q15.87,7.59,29.67,7.59a32.21,32.21,0,0,0,14.95-3.22q6.21-3.22,6.21-8.74,0-10.12-22.08-17.25-36.81-12-36.8-34,0-15.42,11.5-24.27T444.76,64a72.19,72.19,0,0,1,18.74,3,60.1,60.1,0,0,1,18.29,8l-8.05,17.48A108.61,108.61,0,0,0,458.9,86.9a52.6,52.6,0,0,0-14.6-2,20,20,0,0,0-12,3.45q-4.83,3.45-4.83,8.51.22,3.9,5.52,7.13a77.39,77.39,0,0,0,14.72,6.44q38,13.56,38,36.8,0,16.32-11.85,25.3t-34.15,9a79.46,79.46,0,0,1-19.44-2.88Q409.11,175.82,402.21,170.74Zm96.79,0,7.82-17.94q15.87,7.59,29.67,7.59a32.16,32.16,0,0,0,15-3.22q6.21-3.22,6.21-8.74,0-10.12-22.08-17.25-36.8-12-36.8-34,0-15.42,11.5-24.27T541.58,64a72.27,72.27,0,0,1,18.75,3,59.7,59.7,0,0,1,18.28,8l-8.05,17.48a107.47,107.47,0,0,0-14.83-5.64,52.67,52.67,0,0,0-14.61-2,20,20,0,0,0-12,3.45q-4.83,3.45-4.83,8.51.24,3.9,5.52,7.13a77.39,77.39,0,0,0,14.72,6.44q38,13.56,38,36.8,0,16.32-11.84,25.3t-34.16,9a79.31,79.31,0,0,1-19.43-2.88q-11.11-2.78-18-7.85Zm200.59-41.17H622.31q3.45,29.9,35.65,29.9a48.82,48.82,0,0,0,16-2.42,135.36,135.36,0,0,0,16.9-7.47l7.82,18.86a70.84,70.84,0,0,1-41.17,12.88q-30.36,0-46.34-15.76t-16-42.89q0-17.49,6.56-30.71a48.44,48.44,0,0,1,18.86-20.58Q632.89,64,649.68,64q24.62,0,37.26,16.33T699.59,122Zm-76.82-17.25h52q-2.07-12.88-8.51-19.55T649,86.1q-11,0-17.82,6.9T622.77,112.32ZM744.9,178.56H719.14V67h17.25L741,80.35a81,81,0,0,1,21.16-12.42,58.28,58.28,0,0,1,21.62-4.6q19.54,0,28.29,11.61t8.74,31.86v71.76h-26V108.41q0-23.23-17.25-23.23-14,0-32.66,15.41ZM897.39,67.93l7.82,19.78H877.15v53.13q0,9,4,14.37t12.08,5.41a28.66,28.66,0,0,0,11.5-2.76L911.88,177a34.13,34.13,0,0,1-9.55,4,41.3,41.3,0,0,1-11.15,1.73q-18.63,0-29.21-9.66t-10.58-27.83V87.71H836V67.93h15.41V40.56l25.76-5.06V67.93Zm44.39-18.86a14.14,14.14,0,0,1-10.7-4.49,15.29,15.29,0,0,1-4.25-10.92A14.76,14.76,0,0,1,931.2,23a14.21,14.21,0,0,1,10.58-4.48A14.85,14.85,0,0,1,952.7,23a14.63,14.63,0,0,1,4.49,10.7,15.33,15.33,0,0,1-15.25,15.41h-.16ZM929.13,178.56V67h26V178.56Zm62.79-83.49-7.14-21.16q6-3.91,18.52-6.9t20.35-3a52.34,52.34,0,0,1,23.58,5.29,43.16,43.16,0,0,1,16.9,14.37,35.22,35.22,0,0,1,6.21,20.36v74.52h-17.25l-3.91-11.27a55.09,55.09,0,0,1-14.71,10.12,38.52,38.52,0,0,1-16.57,3.91q-19.32,0-29.32-9.66t-10-25.76q0-16.8,11.39-26t30-9.2h24.38q-.45-23.23-20.24-23.23Q1008.93,87.48,991.92,95.07Zm9.19,50.83a14.55,14.55,0,0,0,4.37,10.46q4.38,4.48,12,4.49a32.58,32.58,0,0,0,14.27-3.45,45.15,45.15,0,0,0,12.88-9.43V128h-25.08q-8.5,0-13.45,5.17A17.8,17.8,0,0,0,1001.11,145.9Zm97.29,32.66V18.71l25.76-2.53V178.56ZM286.29,374V217.64h90.62l3.68,20.24H312.05v46.69h52L368,304.81H312.05v49h74.52L390.48,374Zm124.43,0V214.19l25.76-2.53V374Zm152-48.95H485.47q3.43,29.9,35.65,29.9a48.82,48.82,0,0,0,16-2.42A135.09,135.09,0,0,0,554,345.06l7.82,18.86a70.87,70.87,0,0,1-41.18,12.88q-30.34,0-46.34-15.76t-16-42.89q0-17.47,6.55-30.71a48.62,48.62,0,0,1,18.86-20.58q12.3-7.37,29.1-7.36,24.6,0,37.25,16.33t12.66,41.63ZM485.93,307.8h52q-2.07-12.89-8.51-19.55t-17.25-6.67q-11,0-17.82,6.9t-8.42,19.32Zm257.25-38.18q8.63,10.81,8.62,30.36v74h-26V303.89q0-11.5-3.56-17.37t-12.08-5.86a29.92,29.92,0,0,0-14,3.91,109.51,109.51,0,0,0-15.87,10.58,37.11,37.11,0,0,1,.23,4.83v74h-26V303.89q0-11.5-3.56-17.37t-12.08-5.86q-12.2,0-30.82,15.41v78H582.29V262.49h17.25l4.6,13.34a84.52,84.52,0,0,1,20.7-12.42q11-4.61,20.24-4.6,22.54,0,30.59,16.79a89.28,89.28,0,0,1,20.59-12.19q10.92-4.61,20.12-4.6,18.17,0,26.8,10.81Zm131.67,55.43H797.57q3.45,29.9,35.65,29.9a48.82,48.82,0,0,0,16-2.42,135.36,135.36,0,0,0,16.9-7.47l7.82,18.86a70.76,70.76,0,0,1-41.17,12.88q-30.36,0-46.34-15.76t-16-42.89q0-17.47,6.56-30.71a48.56,48.56,0,0,1,18.86-20.58q12.3-7.37,29.09-7.36,24.62,0,37.26,16.33t12.65,41.63ZM798,307.8h52q-2.07-12.89-8.51-19.55t-17.25-6.67q-11,0-17.82,6.9T798,307.8ZM920.16,374H894.4V262.49h17.25l4.6,13.34a81.71,81.71,0,0,1,21.16-12.42,58.28,58.28,0,0,1,21.62-4.6q19.54,0,28.29,11.61t8.74,31.86V374h-26V303.89q0-23.24-17.25-23.23-14,0-32.66,15.41Zm152.49-110.59,7.82,19.78h-28.06v53.13q0,9,4,14.37t12.08,5.41a28.66,28.66,0,0,0,11.5-2.76l7.13,19.09a34.13,34.13,0,0,1-9.55,4,41.3,41.3,0,0,1-11.15,1.73q-18.63,0-29.21-9.66t-10.58-27.83v-57.5h-15.41V263.41h15.41V236l25.76-5.06v32.43Zm25.52,102.81,7.82-17.94q15.87,7.59,29.67,7.59a32.08,32.08,0,0,0,14.95-3.22q6.21-3.22,6.21-8.74,0-10.12-22.08-17.25-36.79-12-36.8-34,0-15.41,11.5-24.27t31.28-8.85a73.12,73.12,0,0,1,18.75,3,60.31,60.31,0,0,1,18.28,8l-8,17.48a109.27,109.27,0,0,0-14.83-5.64,52.62,52.62,0,0,0-14.61-1.95,20,20,0,0,0-12,3.45q-4.83,3.45-4.83,8.51.23,3.92,5.52,7.13a77.39,77.39,0,0,0,14.72,6.44q38,13.58,38,36.8,0,16.33-11.84,25.3t-34.16,9a79.31,79.31,0,0,1-19.43-2.88q-11.22-2.94-18.12-8Z" fill="#f2f2e9"/></svg>