<svg xmlns="http://www.w3.org/2000/svg" width="256" height="256" viewBox="0 0 256 256"><path stroke="#000" stroke-miterlimit="10" d="M120 104.67a44.06 44.06 0 0 1-8.6-14.38 60.32 60.32 0 0 1-2.5-8.11l-.47-2.08c-.07-.37-.15-.64-.21-1.09s-.13-.65-.18-1.1a23.68 23.68 0 0 1-.16-4.76 22.28 22.28 0 0 1 9.57-16.76 16.35 16.35 0 0 1 21.06 2 22.72 22.72 0 0 1 3.38 4.25c.18.31.33.52.58 1s.44.78.63 1.14c.39.74.74 1.5 1.07 2.27a32.25 32.25 0 0 1 2.24 9.63c.53 6.5-.68 12.65-2.13 18.2-.35 1.38-.75 2.72-1.12 4a31 31 0 0 0-.79 3.12c0 .13 0 .2 0 0a2.63 2.63 0 0 0 0-.49l.09.5a7.94 7.94 0 0 0 .22.8 2.77 2.77 0 0 0 .65 1.06 3.79 3.79 0 0 0 2.76.83 10.42 10.42 0 0 0 4.73-1.28 11.94 11.94 0 0 0 3.84-3.23 7.59 7.59 0 0 0 .62-1l.14-.25.17-.35.45-.92 1.7-3.62c2.24-4.83 4.38-9.7 6.22-14.57a70 70 0 0 0 4-14.21 24.94 24.94 0 0 0 .24-3.23v-1.21.31-.26.41c0 .09.08.27.09.31l.07.14a.54.54 0 0 0 .07.13v-.13a10.7 10.7 0 0 0-1.77-2c-.81-.76-1.76-1.54-2.74-2.31-4-3-8.44-6.22-12.92-9.27-2.25-1.53-4.49-3.11-6.7-4.76s-4.44-3.29-6.64-5c-1.1-.85-2.16-1.77-3.23-2.68s-2-1.68-3.41-3.11a16.21 16.21 0 0 1-3.61-8.74 40.73 40.73 0 0 1-.09-8.55c.26-2.77.72-5.49 1.09-8.18h.74c-.13 5.45-.46 10.92.7 16.18a14.28 14.28 0 0 0 3.44 7 24.79 24.79 0 0 0 3.19 2.39c1.12.76 2.26 1.51 3.4 2.24 9.12 5.9 18.77 11 27.8 17.19a29.29 29.29 0 0 1 6.24 5.52 6 6 0 0 1 1 2 12.09 12.09 0 0 1 .16 2.16 30.57 30.57 0 0 1-.2 4.17A73.09 73.09 0 0 1 170.63 82c-1.89 5.13-4 10.15-6.3 15.11l-1.72 3.72a20.37 20.37 0 0 1-2 3.68 18 18 0 0 1-6.43 5.46 17.5 17.5 0 0 1-8.17 2 10.91 10.91 0 0 1-7.9-3.11 10.17 10.17 0 0 1-2.24-3.73 14 14 0 0 1-.53-2.1l-.07-.51a4.17 4.17 0 0 1 0-.61 8.33 8.33 0 0 1 .11-1.12c.53-2.81 1.49-5.32 2.23-7.94 1.52-5.17 2.65-10.51 2.36-15.86a26.36 26.36 0 0 0-1.59-7.8 20.29 20.29 0 0 0-4-6.77 11 11 0 0 0-6.76-3.51A12.07 12.07 0 0 0 120 60.7a18 18 0 0 0-8.26 13 26.12 26.12 0 0 0 .34 8 67.06 67.06 0 0 0 1.72 7.93 46.69 46.69 0 0 0 6.73 14.61z"/><path stroke="#000" stroke-miterlimit="10" d="M165.46 222.88a83.12 83.12 0 0 0-11.2-3.95 54.69 54.69 0 0 0-11.42-2.09 42.42 42.42 0 0 0-11.3.7 53.94 53.94 0 0 0-10.8 3.46c-7.06 2.93-14 6.86-21.61 10.16A89.49 89.49 0 0 1 74.92 238a53.51 53.51 0 0 1-13.32.37 21.78 21.78 0 0 1-7.61-2.2 13.49 13.49 0 0 1-4-3.06 11.62 11.62 0 0 1-2.72-5.22 12.78 12.78 0 0 1 0-5.54A17.34 17.34 0 0 1 48.9 218a25.58 25.58 0 0 1 4.8-6.2q2.44-2.28 5.1-4.32c1.65-1.28 3.28-2.5 4.9-3.69 6.43-4.78 12.75-9.23 18.41-14.27s10.73-10.44 14.19-16.42a46 46 0 0 0 2.3-4.54c.34-.77.62-1.54.89-2.32l.36-1.13.4-1.4a63.83 63.83 0 0 0 1.92-10.61 79.57 79.57 0 0 0-1.16-22 115.93 115.93 0 0 0-6.29-21.83l-4.39-11.15q-2.11-5.69-4.06-11.47c-1.29-3.86-2.5-7.76-3.56-11.79-.52-2-1-4.07-1.39-6.24a31.34 31.34 0 0 1-.44-3.47 16.2 16.2 0 0 1 0-2.09 12.5 12.5 0 0 1 .12-1.37 7.28 7.28 0 0 1 .72-2.07A5.69 5.69 0 0 1 83 58.06l.29-.23.6-.49 1.18-.94 2.35-1.88 4.69-3.73 9.37-7.45c6.27-4.9 12.69-9.77 18.63-14.83.36-.32.72-.63 1-.93a2 2 0 0 0 .53-.62 11.71 11.71 0 0 0 .86-2.43 42.21 42.21 0 0 0 1-5.68A86.94 86.94 0 0 0 124.2 7l.74-.08a86 86 0 0 1 .38 12 46.41 46.41 0 0 1-.63 6 15.17 15.17 0 0 1-.81 3 4.11 4.11 0 0 1-.89 1.36c-.34.38-.7.74-1.06 1.09-5.77 5.57-11.82 10.75-17.82 16l-9 7.85-4.52 3.93-2.25 2-1.12 1-.57.49-.28.25-.11.15a6.13 6.13 0 0 0-.17 2.66c.11 1 .26 2 .46 2.9.4 1.93.91 3.85 1.47 5.76 1.13 3.81 2.43 7.57 3.81 11.3 2.75 7.48 5.85 14.81 9 22.17a122.9 122.9 0 0 1 7.13 22.94 85.17 85.17 0 0 1 1.49 24 70.52 70.52 0 0 1-2 11.9 42.23 42.23 0 0 1-4.64 11.2c-4.13 7-9.8 12.87-15.83 18.12s-12.62 9.9-19.13 14.5a106.31 106.31 0 0 0-9.42 7.22 18.59 18.59 0 0 0-3.64 4.5 7.91 7.91 0 0 0-1.09 5.33 6.21 6.21 0 0 0 3.4 4.05 17.14 17.14 0 0 0 5.51 1.66 48 48 0 0 0 11.79 0 90.74 90.74 0 0 0 11.71-2 95.78 95.78 0 0 0 11.33-3.64c7.42-2.84 14.54-6.5 22.11-9.19a57.24 57.24 0 0 1 11.68-2.92 45 45 0 0 1 12 0c8 1.07 15.57 4.09 22.64 7.81z"/><path stroke="#000" stroke-miterlimit="10" d="M154.06 128.72c-.21 2.66-.31 5.31-.36 8s-.1 5.3 0 7.94a117.59 117.59 0 0 0 1.17 15.69 47.26 47.26 0 0 0 4.1 14.59 22.24 22.24 0 0 0 1.84 3c.33.46.7.9 1.14 1.43l1.25 1.47q2.53 2.92 5.31 5.58a70.75 70.75 0 0 0 12.11 9.19c2.19 1.33 4.5 2.6 6.86 4 1.18.7 2.34 1.42 3.54 2.22s2.3 1.57 3.4 2.4a47.39 47.39 0 0 1 11.81 12.52 17.63 17.63 0 0 1 2.84 9.53 10.75 10.75 0 0 1-1.79 5.63 12.46 12.46 0 0 1-4.11 3.8 23.61 23.61 0 0 1-9 2.79 53.13 53.13 0 0 1-8.55.32 99.45 99.45 0 0 1-16.31-2.19c-2.65-.54-5.33-1.18-7.88-1.81s-5-1.13-7.61-1.61a103.64 103.64 0 0 0-15.41-1.7 100.43 100.43 0 0 0-15.51.63 94.51 94.51 0 0 0-15.27 3.16 98.21 98.21 0 0 0-28.3 13.79 86.62 86.62 0 0 1 27.24-16.89 91.82 91.82 0 0 1 31.9-6.06 108.64 108.64 0 0 1 16.32 1c2.67.34 5.43.85 8 1.4s5.14 1 7.73 1.49a113.55 113.55 0 0 0 15.29 1.6 45.26 45.26 0 0 0 7.36-.35 16.87 16.87 0 0 0 6.16-1.9 5.11 5.11 0 0 0 1.7-1.57 3.75 3.75 0 0 0 .59-1.86 10.71 10.71 0 0 0-1.75-5.51 40.7 40.7 0 0 0-9.87-10.6c-1-.79-2-1.53-3-2.3s-2.06-1.42-3.14-2.12c-2.18-1.38-4.49-2.75-6.79-4.25a66.9 66.9 0 0 1-12.77-10.6c-1.88-2-3.66-4.1-5.34-6.28l-1.26-1.65c-.37-.5-.82-1.11-1.24-1.75a23.9 23.9 0 0 1-2-3.92 51.53 51.53 0 0 1-3.3-16.27 110.21 110.21 0 0 1 .43-16.15 126.25 126.25 0 0 1 2.47-15.83z"/></svg>