<svg xmlns="http://www.w3.org/2000/svg" width="256" height="256" viewBox="0 0 256 256"><path d="M129.55 66.55a60.77 60.77 0 1 0 60.76 60.77 60.68 60.68 0 0 0-60.56-60.77zm0 100.3a39.51 39.51 0 1 1 39.5-39.52 39.58 39.58 0 0 1-39.5 39.52zM207 64.07a14.14 14.14 0 1 1 0-.06zm40.24 14.39a70.19 70.19 0 0 0-19.19-49.66A70.61 70.61 0 0 0 178.4 9.66c-19.56-1.11-78.2-1.11-97.76 0A70.43 70.43 0 0 0 31 28.75 70.4 70.4 0 0 0 11.85 78.4c-1.11 19.57-1.11 78.21 0 97.78A70.15 70.15 0 0 0 31 225.81 70.65 70.65 0 0 0 80.65 245c19.56 1.1 78.2 1.1 97.76 0a70.18 70.18 0 0 0 49.64-19.15 70.62 70.62 0 0 0 19.14-49.66c1.11-19.57 1.11-78.16 0-97.73zm-25.32 118.69a40 40 0 0 1-22.56 22.56c-15.6 6.19-52.61 4.76-69.85 4.76s-54.29 1.37-69.84-4.76a40 40 0 0 1-22.49-22.56c-6.18-15.6-4.76-52.62-4.76-69.86S31.05 73 37.18 57.44A40 40 0 0 1 59.71 34.9c15.59-6.19 52.6-4.76 69.84-4.76s54.29-1.37 69.84 4.76a40 40 0 0 1 22.53 22.54c6.18 15.6 4.76 52.62 4.76 69.85s1.42 54.34-4.76 69.86z"/></svg>