<svg xmlns="http://www.w3.org/2000/svg" width="256" height="256" viewBox="0 0 256 256"><path fill="#050007" d="M114.62 71.92a36.06 36.06 0 0 1-7.41-14.32 46.41 46.41 0 0 1-1.54-8 48.35 48.35 0 0 1-.24-8.27 34.62 34.62 0 0 1 1.57-8.47 23.59 23.59 0 0 1 4.35-8 18.64 18.64 0 0 1 3.61-3.23 15.3 15.3 0 0 1 4.59-2.09 14.31 14.31 0 0 1 10 1 16.59 16.59 0 0 1 6.9 6.46 21.72 21.72 0 0 1 1.08 2c.29.66.54 1.31.81 2l.7 2 .58 2a42.8 42.8 0 0 1 .87 16.37 87.47 87.47 0 0 1-3.71 15.49c-.37 1.25-.79 2.49-1.07 3.71a12.34 12.34 0 0 0-.31 1.72c0 .56-.05 1.22 0 1.82 0 2.42.78 4.74 2.26 5.38s4 .48 6.32 0 4.88-1.29 7.5-2a38.59 38.59 0 0 1 4.1-.83 19.59 19.59 0 0 1 4.59-.22 19 19 0 0 1 2.35.35 17.36 17.36 0 0 1 2.33.66 14.31 14.31 0 0 1 7.8 6.45 18.94 18.94 0 0 1 1.86 4.52 33.2 33.2 0 0 1 1 8.8 95.52 95.52 0 0 1-1.81 16.23c-.95 5.21-2.13 10.3-3.19 15.34-.26 1.22-.55 2.59-.88 3.93s-.7 2.71-1.19 4.12a19.18 19.18 0 0 1-2.15 4.46 9.53 9.53 0 0 1-2.28 2.38 7.42 7.42 0 0 1-3.65 1.37 9.06 9.06 0 0 1-3.22-.32 15.11 15.11 0 0 1-2.37-.87 35.47 35.47 0 0 1-3.76-2c-2.3-1.39-4.45-2.76-6.65-4a85.2 85.2 0 0 0-13.67-6.6l-1.47-.55v-1.29c0-3.68.07-7.36.16-11s.27-7.36.69-11h.8c.11 1.82.33 3.64.52 5.46l.62 5.46 1.28 10.91-1.48-1.84a73.85 73.85 0 0 1 15.34 5.09c2.44 1.11 4.83 2.33 7.12 3.42 1.13.54 2.26 1.05 3.26 1.43a4.18 4.18 0 0 0 2 .4c.05 0-.09 0-.06-.05s.16-.21.33-.51a13.27 13.27 0 0 0 1-2.68c.31-1.07.57-2.24.81-3.44s.42-2.41.65-3.74c.93-5.21 2-10.33 3-15.36A107.24 107.24 0 0 0 167.44 97a26.42 26.42 0 0 0-.4-6.75 8.94 8.94 0 0 0-2.49-4.84 8.28 8.28 0 0 0-2.27-1.41 13.38 13.38 0 0 0-2.91-.85 25.47 25.47 0 0 0-6.87.14c-2.51.27-5.13.7-7.89.91a25 25 0 0 1-4.33 0 9.73 9.73 0 0 1-4.63-1.55 7.26 7.26 0 0 1-1.84-1.91 8.17 8.17 0 0 1-1-2.27 15.4 15.4 0 0 1-.36-4.37c0-.72.09-1.36.2-2.1a13.45 13.45 0 0 1 .51-2.1c.41-1.29.83-2.53 1.25-3.77a51.25 51.25 0 0 0 3.18-15 33.17 33.17 0 0 0-2.68-14.53l-.75-1.6-.86-1.61-.93-1.55a16 16 0 0 0-1-1.33 11.78 11.78 0 0 0-2.22-2.19 9.26 9.26 0 0 0-2.52-1.44c-3.48-1.4-7.28-.36-10.05 2.72s-4.38 7.65-5.12 12.39c-.19 1.19-.32 2.41-.44 3.63s-.18 2.49-.15 3.73a60.68 60.68 0 0 0 .36 7.49 51.79 51.79 0 0 0 1.39 7.44c.33 1.22.68 2.45 1.12 3.65a31.7 31.7 0 0 0 1.47 3.56z"/><path fill="#050007" d="M165.55 204.23c-7.71-2.8-15.59-5.11-23.5-5.45a48.83 48.83 0 0 0-11.66.93 60.62 60.62 0 0 0-11.18 3.59c-3.66 1.52-7.28 3.33-10.95 5.17s-7.42 3.66-11.31 5.31a91.93 91.93 0 0 1-12 4.24 83.46 83.46 0 0 1-12.58 2.37 49.85 49.85 0 0 1-13.13-.12A19.68 19.68 0 0 1 52.4 218a10.64 10.64 0 0 1-3.09-2.64 8.31 8.31 0 0 1-1.71-4 9.41 9.41 0 0 1 .36-4 13.81 13.81 0 0 1 1.52-3.36 23 23 0 0 1 4.46-5c1.64-1.41 3.34-2.63 5-3.85s3.37-2.41 5.06-3.59a151 151 0 0 0 19.14-15.29 74.7 74.7 0 0 0 8-9.08A46.81 46.81 0 0 0 97 156.76a35 35 0 0 0 1.68-5.58c.2-1 .34-1.88.47-2.86l.34-3q.65-6.06.86-12.13c.17-4 .22-8.09.13-12.11s-.29-8-.7-12a75.6 75.6 0 0 0-2-11.56 35.2 35.2 0 0 0-1.81-5.25 14.12 14.12 0 0 0-2.52-4.05 5.14 5.14 0 0 0-1.34-1 3.3 3.3 0 0 0-.62-.22l-.32-.07-.66-.09a14.24 14.24 0 0 0-4.73.06A4.66 4.66 0 0 0 83 88.42a8.18 8.18 0 0 0-1.44 3.69 39 39 0 0 0 .11 11c.45 3.89 1.19 7.85 1.93 11.84L86 127l1.14 6.12.54 3.07.26 1.52c.06.43.15.83.24 1.23a9.29 9.29 0 0 0 .74 2 3.92 3.92 0 0 0 .92 1.2 2.78 2.78 0 0 0 1.32.56 7.1 7.1 0 0 0 2.11 0 22.34 22.34 0 0 0 5.16-1.51c1.78-.74 3.58-1.57 5.38-2.47 3.6-1.8 7.17-3.84 10.89-5.72 1.86-1 3.74-1.87 5.69-2.71a38.19 38.19 0 0 1 6.09-2.16l-1.18 1.64c.1-3.81.18-7.61.35-11.41s.33-7.61.59-11.41h.8l.78 11.37.81 11.37.09 1.14-1.26.49A60.77 60.77 0 0 0 117 137c-3.43 2.19-6.85 4.47-10.44 6.66-1.8 1.09-3.64 2.17-5.62 3.12a28.46 28.46 0 0 1-6.52 2.34 13.51 13.51 0 0 1-4 .26 9.79 9.79 0 0 1-4.43-1.52 10.52 10.52 0 0 1-3.16-3.34 15.77 15.77 0 0 1-1.58-3.66c-.18-.6-.33-1.19-.45-1.78l-.32-1.51-.67-3-1.4-6q-1.47-6-2.84-12c-.92-4.07-1.73-8.19-2.31-12.46a63 63 0 0 1-.56-6.56 33.62 33.62 0 0 1 .46-7A16.48 16.48 0 0 1 76.39 83 12.78 12.78 0 0 1 80 80a14 14 0 0 1 4.14-1.45 22.17 22.17 0 0 1 7.55 0l.87.14a11.14 11.14 0 0 1 1.14.31 12 12 0 0 1 2.24.92 13.43 13.43 0 0 1 3.45 2.79 21.65 21.65 0 0 1 3.84 6.44 44.09 44.09 0 0 1 2 6.48 83.81 83.81 0 0 1 1.77 12.82 141.94 141.94 0 0 1-.77 25.19q-.75 6.23-1.93 12.38l-.62 3.07c-.22 1-.48 2.13-.8 3.17a39.56 39.56 0 0 1-2.37 6.05 53.9 53.9 0 0 1-7 10.66 88.51 88.51 0 0 1-8.64 9.09c-6.09 5.68-12.74 10.62-19.21 15.71a99.16 99.16 0 0 0-9.26 7.85 17.41 17.41 0 0 0-3.29 4.47 6.77 6.77 0 0 0-.8 4.45 4.22 4.22 0 0 0 2.69 2.68 15.76 15.76 0 0 0 5 1.12 50.52 50.52 0 0 0 11.47-.75 102.92 102.92 0 0 0 22.82-6.35c7.43-3 14.74-6.76 22.77-9.65a58.2 58.2 0 0 1 12.52-3.09 46.65 46.65 0 0 1 12.93.12c8.52 1.25 16.33 4.68 23.44 8.89z"/><path fill="#050007" d="M151.56 109.07c.41 10.81.79 21.55 2.59 31.82a52.51 52.51 0 0 0 4.29 14.37 24 24 0 0 0 1.78 2.93c.16.23.34.44.5.66l.61.74 1.24 1.51c.82 1 1.68 2 2.52 3s1.71 1.94 2.6 2.88a72.7 72.7 0 0 0 11.73 10.27c4.34 3 9.18 5.76 13.53 9.12a77.57 77.57 0 0 1 6.34 5.29 40.61 40.61 0 0 1 5.57 6.3 16.31 16.31 0 0 1 3.29 8.4 9.46 9.46 0 0 1-1.14 5 11.66 11.66 0 0 1-3.43 3.8 23.12 23.12 0 0 1-8.5 3.53 47.92 47.92 0 0 1-8.59 1 105.34 105.34 0 0 1-16.72-1c-2.73-.36-5.49-.81-8.15-1.27s-5.13-.86-7.71-1.19a128 128 0 0 0-15.51-1 99.94 99.94 0 0 0-30.7 4.56c-2.5.76-5 1.64-7.41 2.64s-4.86 2-7.23 3.22a120.88 120.88 0 0 0-13.85 8.08l-.52-.61a82.11 82.11 0 0 1 27-18.8 90.44 90.44 0 0 1 32.59-7.34 99.8 99.8 0 0 1 16.76.76c2.77.35 5.52.84 8.25 1.39s5.18 1.13 7.78 1.6a109.78 109.78 0 0 0 15.47 1.89 57.12 57.12 0 0 0 7.54-.16 20.11 20.11 0 0 0 6.7-1.68 5.51 5.51 0 0 0 3.33-4.46 8.61 8.61 0 0 0-.35-3.32 17.47 17.47 0 0 0-1.45-3.39 36.94 36.94 0 0 0-10.77-11.24 54.56 54.56 0 0 0-6.82-4.07c-2.37-1.21-4.86-2.3-7.32-3.54a65.62 65.62 0 0 1-14.11-9.08c-1.11-.87-2.09-1.88-3.14-2.82s-2-2-2.9-3l-1.38-1.57c-.24-.27-.46-.51-.7-.81s-.5-.62-.73-.95a25.09 25.09 0 0 1-2.37-4 39.74 39.74 0 0 1-2.85-8.34 62.66 62.66 0 0 1-1.3-8.39 77.58 77.58 0 0 1-.3-8.33c0-1.38 0-2.76.11-4.13s.18-2.75.3-4.11a94 94 0 0 1 2.74-16.23z"/></svg>