<svg xmlns="http://www.w3.org/2000/svg" width="256" height="256" viewBox="0 0 256 256"><path fill="#050007" d="M124 69.76a29.55 29.55 0 0 1-4.78-7.41 42.48 42.48 0 0 1-2.87-8.4 46.42 46.42 0 0 1-1.21-8.86 37.17 37.17 0 0 1 .61-9.19 26.59 26.59 0 0 1 1.37-4.6 21.52 21.52 0 0 1 2.29-4.41 17.71 17.71 0 0 1 8-6.66 14.89 14.89 0 0 1 10.89-.06 16.29 16.29 0 0 1 8 6.86 12.31 12.31 0 0 1 .61 1.13 9.78 9.78 0 0 1 .52 1.1c.31.71.62 1.42.88 2.15a33.27 33.27 0 0 1 1.33 4.44 37.54 37.54 0 0 1 .88 9.11 60 60 0 0 1-3.45 17.27l-1.34 4.08a20.35 20.35 0 0 0-1 3.87 14.6 14.6 0 0 0 .14 3.93 4.08 4.08 0 0 0 1.59 2.75 5.22 5.22 0 0 0 3.23.63 22.53 22.53 0 0 0 3.91-.7c2.67-.67 5.37-1.64 8.29-2.33a26 26 0 0 1 4.66-.72 13.46 13.46 0 0 1 5.24.75 12.7 12.7 0 0 1 4.59 3 18.11 18.11 0 0 1 3 4.19 33.06 33.06 0 0 1 3 9 85.76 85.76 0 0 1 1.11 8.86 125.54 125.54 0 0 1 .4 17.6 71.61 71.61 0 0 1-1 8.94 83.34 83.34 0 0 1-2.13 8.72 64.08 64.08 0 0 1-3.21 8.48c-.63 1.38-1.34 2.74-2.08 4.08s-1.59 2.64-2.48 3.9a45.37 45.37 0 0 1-2.83 3.67c-1 1.15-1.91 2.19-2.9 3.28-2 2.13-4.05 4.23-6.26 6.23a50.51 50.51 0 0 1-7.13 5.48 31.19 31.19 0 0 1-8.32 3.84 21.34 21.34 0 0 1-4.55.84 20.11 20.11 0 0 1-4.59-.12 21.56 21.56 0 0 1-8.33-3l.34-.73a25.52 25.52 0 0 0 4.07 1c.67.13 1.36.15 2 .22s1.35 0 2 0a17.12 17.12 0 0 0 3.92-.59 20.88 20.88 0 0 0 3.7-1.32c4.77-2.23 8.8-5.9 12.44-9.94 1.83-2 3.56-4.17 5.26-6.39.84-1.08 1.74-2.23 2.53-3.31a39 39 0 0 0 2.16-3.25 60.51 60.51 0 0 0 6-14.66c.7-2.59 1.36-5.27 1.84-7.9s.83-5.29 1.11-8a133.52 133.52 0 0 0 .38-16.54c-.31-10.63-1.57-23.61-13.21-21.1-2.69.29-5.48.87-8.39 1.31a25.87 25.87 0 0 1-4.56.35 8.26 8.26 0 0 1-4.9-1.46 5.91 5.91 0 0 1-1.61-2.17 9.29 9.29 0 0 1-.73-2.4 18.63 18.63 0 0 1-.07-4.59 25.85 25.85 0 0 1 1.09-4.39c.42-1.37.84-2.72 1.21-4.08a50.91 50.91 0 0 0 1.62-8.19 37.69 37.69 0 0 0-.06-8.16 32.73 32.73 0 0 0-1.91-7.71 38.16 38.16 0 0 0-1.61-3.57 23.38 23.38 0 0 0-1.92-3.19 10.66 10.66 0 0 0-5-3.81 8.56 8.56 0 0 0-5.82 0 11.41 11.41 0 0 0-5 3.94 21 21 0 0 0-3.15 6.55 37.57 37.57 0 0 0-1.29 7.75l-.1 2v4c0 .64 0 1.37.11 2.05a51.34 51.34 0 0 0 1.3 8.13 38.71 38.71 0 0 0 2.76 7.87z"/><path fill="#050007" d="M174.07 195.6c-7.63-2.73-15.44-4.89-23.23-5h-1.45l-1.45.06c-1 0-1.92.13-2.88.22s-1.9.26-2.84.38-1.89.35-2.82.59a65.71 65.71 0 0 0-10.94 3.87c-3.59 1.59-7.15 3.44-10.8 5.27s-7.39 3.62-11.29 5.18a80.35 80.35 0 0 1-12.07 3.84c-2.09.48-4.12.87-6.22 1.17s-4.19.54-6.33.66a44.45 44.45 0 0 1-6.52-.08 25.44 25.44 0 0 1-6.74-1.41 15 15 0 0 1-3.35-1.8 9.3 9.3 0 0 1-2.75-3.21 8.13 8.13 0 0 1-.83-4.2 10.62 10.62 0 0 1 1-3.71c2.1-4.41 5.71-7.1 9-9.5s6.67-4.72 10-7.1a110.3 110.3 0 0 0 18.06-15.92 53.84 53.84 0 0 0 6.85-9.67 34.75 34.75 0 0 0 3.87-10.85l.22-1.4.17-1.48c.12-1 .21-2 .3-3 .19-2 .33-4 .45-6 .2-4 .31-8 .3-12s-.14-7.95-.47-11.88A89.25 89.25 0 0 0 109.63 97 31.76 31.76 0 0 0 106 87a6 6 0 0 0-2.57-2.52 2.72 2.72 0 0 0-.56-.17.51.51 0 0 0-.22 0h-.82a6.9 6.9 0 0 0-1.92.12A4.38 4.38 0 0 0 97.24 86a11.34 11.34 0 0 0-1.88 3.9 40.16 40.16 0 0 0-1.27 10.8 112.46 112.46 0 0 0 .64 11.66q.3 3 .71 5.91l.41 3c.06.52.14 1 .22 1.43l.24 1.37a49.69 49.69 0 0 0 9.29 20.51 72.47 72.47 0 0 0 7.7 8.78 96.62 96.62 0 0 0 9 7.64c.81.57 1.6 1.19 2.43 1.73l2.43 1.64a22.48 22.48 0 0 0 5.22 2.22 16.76 16.76 0 0 0 11.38-.43l.38.7a15.69 15.69 0 0 1-5.89 2.29 20.63 20.63 0 0 1-6.42 0 25.24 25.24 0 0 1-6.24-1.77c-2-1-3.72-1.92-5.53-3a75.24 75.24 0 0 1-19.43-15.9 59.74 59.74 0 0 1-7.34-10.58 53.66 53.66 0 0 1-4.62-12.25l-.36-1.61c-.12-.55-.24-1.08-.32-1.56l-.55-3q-.52-3-.95-6.15a102.79 102.79 0 0 1-1-12.63 45.44 45.44 0 0 1 1.59-13.3 19.74 19.74 0 0 1 3.58-6.89 16.15 16.15 0 0 1 1.54-1.56 17.44 17.44 0 0 1 1.84-1.31 13.12 13.12 0 0 1 4.21-1.53 15.35 15.35 0 0 1 4.14-.17l1 .12.48.06a2.54 2.54 0 0 1 .53.1 10.12 10.12 0 0 1 2.33.77 12.26 12.26 0 0 1 3.68 2.64 18.22 18.22 0 0 1 2.37 3.16 39 39 0 0 1 4.25 12.83 90.62 90.62 0 0 1 1.24 12.61 123.31 123.31 0 0 1-.19 12.47q-.37 6.21-1.28 12.33c-.3 2.05-.63 4.08-1 6.11-.19 1-.38 2-.59 3l-.31 1.52-.39 1.58a41.77 41.77 0 0 1-5.22 11.64 60.43 60.43 0 0 1-3.69 5.08c-1.28 1.64-2.67 3.18-4.08 4.69-5.69 6-12.1 11.12-18.51 16.15-3.19 2.54-6.42 5-9.47 7.61a42.81 42.81 0 0 0-4.21 4 13.58 13.58 0 0 0-2.69 4.59c-1.07 3.3.34 5 3.65 5.9a30.85 30.85 0 0 0 10.89.21A99.11 99.11 0 0 0 92.64 203a97.5 97.5 0 0 0 11.13-3.5c7.34-2.8 14.5-6.53 22.33-9.55s16.6-4.82 25.06-3.61c8.47 1.06 16.24 4.4 23.26 8.57z"/><path fill="#050007" d="M158.26 105c1.08 10.28 2.15 20.45 4.3 30.16a56.05 56.05 0 0 0 4.61 13.59 26.39 26.39 0 0 0 1.74 2.79c.57.79 1.47 1.83 2.23 2.76 1.58 1.9 3.2 3.76 4.88 5.55a69.27 69.27 0 0 0 11.14 9.79c4.13 2.87 8.75 5.49 12.91 8.68a53.3 53.3 0 0 1 11.44 11 15.85 15.85 0 0 1 3.25 8 9.19 9.19 0 0 1-1 4.87 11.08 11.08 0 0 1-3.26 3.71 21.77 21.77 0 0 1-8.12 3.48 43.14 43.14 0 0 1-8.21 1 100.64 100.64 0 0 1-16-.87c-2.61-.33-5.24-.75-7.78-1.17-1.23-.19-2.45-.43-3.67-.61s-2.45-.35-3.68-.5a123.52 123.52 0 0 0-14.75-1 96.47 96.47 0 0 0-29.2 4.38c-2.38.73-4.74 1.56-7 2.52s-4.63 1.94-6.89 3.06a117.07 117.07 0 0 0-13.2 7.75l-.52-.61a79.16 79.16 0 0 1 33-21 76.18 76.18 0 0 1 7.72-2.17 87.07 87.07 0 0 1 15.91-2.16 95.09 95.09 0 0 1 16 .67c2.65.33 5.27.79 7.88 1.31s4.93 1 7.4 1.5a103.74 103.74 0 0 0 14.73 1.75 56.43 56.43 0 0 0 7.15-.16 18.75 18.75 0 0 0 6.32-1.61 5.12 5.12 0 0 0 3.09-4.18 11.36 11.36 0 0 0-1.75-6.36 27.58 27.58 0 0 0-4.53-5.82 44 44 0 0 0-5.78-4.82 51.78 51.78 0 0 0-6.52-3.83c-2.27-1.14-4.65-2.16-7-3.33a62.86 62.86 0 0 1-13.53-8.59c-1-.84-2-1.79-3-2.69s-1.91-1.88-2.78-2.89l-1.33-1.5a20.11 20.11 0 0 1-1.35-1.68 26.88 26.88 0 0 1-2.3-3.76 40.8 40.8 0 0 1-2.91-7.85 63 63 0 0 1-1.56-7.92 92.88 92.88 0 0 1-.69-15.78 94.4 94.4 0 0 1 1.81-15.46z"/></svg>