<svg xmlns="http://www.w3.org/2000/svg" width="256" height="256" viewBox="0 0 256 256"><defs><clipPath id="a"><path fill="none" d="M-286.29 8h234.7v234.7h-234.7z"/></clipPath><clipPath id="b"><path fill="none" d="M13.71 8h234.7v234.7H13.71z"/></clipPath></defs><g clip-path="url(#a)"><path fill="none" d="M38 51h158v158H38z" opacity=".5"/></g><g clip-path="url(#b)" opacity=".5"><path fill="none" d="M13.71 8h234.7v234.7H13.71z"/><path fill="#f2f2e9" d="M187.77 59.83a9.45 9.45 0 0 0-13.37-.32c-.11.1-.21.21-.32.32l-47.91 47.92-47.92-47.92a9.68 9.68 0 0 0-13.69 13.69l47.91 47.92-47.91 47.91a9.68 9.68 0 0 0 13.69 13.7l47.92-47.92 47.91 47.92a9.68 9.68 0 0 0 13.83-13.56l-.14-.14-47.91-47.91 47.91-47.92a9.45 9.45 0 0 0 .32-13.37c-.09-.15-.21-.22-.32-.32z"/></g></svg>