<svg xmlns="http://www.w3.org/2000/svg" width="256" height="256" viewBox="0 0 256 256"><path fill="#f2f2e9" d="M221.63 8.82H35.41A25.4 25.4 0 0 0 10 34.22v186.21a25.39 25.39 0 0 0 25.39 25.39h186.24A25.39 25.39 0 0 0 247 220.43V34.22a25.41 25.41 0 0 0-25.37-25.4zm-25.87 84c.11 1.51.11 3 .11 4.53a98 98 0 0 1-97.37 98.7h-1.35a98.31 98.31 0 0 1-53.27-15.55 72.74 72.74 0 0 0 8.35.42 69.56 69.56 0 0 0 43.06-14.81A34.73 34.73 0 0 1 62.87 142a37.44 37.44 0 0 0 15.66-.64 34.67 34.67 0 0 1-27.79-34.07v-.42a34.73 34.73 0 0 0 15.66 4.43 34.81 34.81 0 0 1-10.74-46.39 98.53 98.53 0 0 0 71.53 36.29 34.77 34.77 0 0 1 59.2-31.67 67.73 67.73 0 0 0 22-8.36 34.61 34.61 0 0 1-15.23 19.11 69.44 69.44 0 0 0 20-5.4 72.91 72.91 0 0 1-17.4 17.95z"/></svg>