<svg xmlns="http://www.w3.org/2000/svg"><symbol id="fb" viewBox="0 0 256 256"><path d="M245 34.21v186.22a25.41 25.41 0 0 1-25.39 25.39H174.5V152.1h32.05l4.6-35.76H174.5V93.46c0-10.37 2.86-17.4 17.72-17.4h18.93V44.11a254.66 254.66 0 0 0-27.61-1.43c-27.3 0-46 16.67-46 47.3v26.39h-32.18v35.73h32.21v93.72H33.41A25.39 25.39 0 0 1 8 220.43V34.21A25.4 25.4 0 0 1 33.41 8.82h186.21A25.4 25.4 0 0 1 245 34.21z"/></symbol><symbol id="hamburger" viewBox="0 0 256 256"><defs><clipPath id="a"><path fill="none" d="M9.71 8h234.7v234.7H9.71z"/></clipPath></defs><g clip-path="url(#a)"><path fill="none" d="M9.71 8h234.7v234.7H9.71z"/><path d="M43.07 80.45a9.77 9.77 0 0 0 9.77 9.78h156.47a9.78 9.78 0 0 0 0-19.56H52.84a9.77 9.77 0 0 0-9.77 9.78zm9.77 58.68h156.47a10.52 10.52 0 0 0 9.78-9.78 10.51 10.51 0 0 0-9.78-9.78H52.84a10.5 10.5 0 0 0-9.77 9.78 10.51 10.51 0 0 0 9.77 9.78zm0 48.89h156.47a9.78 9.78 0 0 0 0-19.56H52.84a9.78 9.78 0 0 0 0 19.56z"/></g></symbol><symbol id="mc" viewBox="0 0 256 256"><path d="M208.94 192.41a4.71 4.71 0 1 1-4.7-4.91 4.69 4.69 0 0 1 4.7 4.91zM78.36 187.5a4.57 4.57 0 0 0-4.7 4.91c0 2.74 1.72 4.92 4.7 4.92 2.73 0 4.58-2.06 4.58-4.92s-1.85-4.91-4.58-4.91zm49.37-.13a3.89 3.89 0 0 0-4 3.66h8c-.35-2.4-1.82-3.66-4-3.66zm45.29.13c-2.86 0-4.58 2.18-4.58 4.91s1.72 4.92 4.58 4.92a4.57 4.57 0 0 0 4.7-4.92 4.64 4.64 0 0 0-4.72-4.91zm44.49 11c0 .13.13.21.13.47s-.13.21-.13.46a2.09 2.09 0 0 0-.21.34.55.55 0 0 1-.46.21c-.13.12-.21.12-.46.12a.9.9 0 0 1-.47-.12c-.12 0-.21-.13-.33-.21s-.21-.21-.21-.34a.75.75 0 0 1-.13-.46c0-.21 0-.34.13-.47a.76.76 0 0 1 .21-.46c.12-.12.21-.12.33-.21a.81.81 0 0 1 .47-.12.58.58 0 0 1 .46.12c.21.13.34.13.46.21s.09.21.21.42zm-.92.59c.21 0 .21-.12.33-.12a.51.51 0 0 0 0-.68c-.12 0-.21-.12-.46-.12h-.67v1.47h.33V199h.13l.46.59h.34l-.46-.55zm31.47-145V202a20.18 20.18 0 0 1-20.17 20.17H26.22A20.17 20.17 0 0 1 6.06 202V54.06A20.17 20.17 0 0 1 26.22 33.9h201.67a20.17 20.17 0 0 1 20.17 20.16zM32.94 112.71a58.17 58.17 0 0 0 90.33 48.49c-30.62-24.92-30.41-71.93 0-96.84a58.16 58.16 0 0 0-90.33 48.35zm94.12 45.72c29.62-23.11 29.49-68.15 0-91.38-29.5 23.23-29.62 68.31 0 91.38zm-59.79 32c0-3.65-2.4-6-6.18-6.17a6 6 0 0 0-5.37 2.74 5.56 5.56 0 0 0-5.13-2.73 5.32 5.32 0 0 0-4.45 2.26v-1.84h-3.45v15.42h3.45c0-8-1-12.69 3.78-12.69 4.28 0 3.44 4.28 3.44 12.69h3.32c0-7.69-1-12.69 3.78-12.69 4.29 0 3.45 4.2 3.45 12.69h3.44v-9.67zm18.86-5.75h-3.32v1.84a6.06 6.06 0 0 0-4.91-2.26c-4.33 0-7.65 3.44-7.65 8.1s3.32 8.11 7.65 8.11a5.79 5.79 0 0 0 4.91-2.27v1.94h3.32zm17 10.75c0-6.3-9.62-3.44-9.62-6.38 0-2.4 5-2 7.77-.47l1.39-2.73c-4-2.56-12.69-2.52-12.69 3.45s9.62 3.48 9.62 6.3c0 2.65-5.67 2.44-8.7.34l-1.47 2.64c4.71 3.2 13.7 2.52 13.7-3.15zm14.87 3.96l-.92-2.86c-1.6.88-5.13 1.85-5.13-1.72v-7h5.51v-3.11H112V180h-3.44v4.71h-3.2v3.06h3.2v7c0 7.39 7.27 6.05 9.49 4.58zm5.59-5.63h11.55c0-6.81-3.1-9.5-7.31-9.5-4.45 0-7.64 3.32-7.64 8.11 0 8.62 9.49 10 14.2 6l-1.6-2.52c-3.26 2.66-8.21 2.4-9.18-2.09zm24.83-9a4.94 4.94 0 0 0-6.39 1.84v-1.84h-3.44v15.42h3.44v-8.7c0-4.88 4-4.24 5.38-3.53l1-3.19zm4.45 7.68c0-4.78 4.88-6.34 8.7-3.52l1.6-2.74c-4.88-3.82-13.74-1.72-13.74 6.31 0 8.32 9.41 10 13.74 6.3l-1.6-2.73c-3.84 2.7-8.68 1.06-8.68-3.65zm28-7.68h-3.45v1.84c-3.48-4.62-12.56-2-12.56 5.84 0 8.07 9.41 10.38 12.56 5.84v1.94h3.45zm14.16 0c-1-.51-4.63-1.22-6.39 1.84v-1.84h-3.32v15.42h3.32v-8.7c0-4.62 3.78-4.33 5.38-3.53l1-3.19zm16.97-6.29h-3.32v8.1c-3.45-4.57-12.56-2.14-12.56 5.84 0 8.16 9.45 10.34 12.56 5.84v1.94H212v-21.72zm3.19-31.56v1.94h.34v-1.94h.8v-.33h-1.93v.33zm2.77 52a1.37 1.37 0 0 0-.12-.68c-.13-.12-.21-.33-.34-.46s-.33-.21-.46-.33-.46-.13-.67-.13a4.62 4.62 0 0 1-.59.13 2 2 0 0 0-.46.33.68.68 0 0 0-.34.46 1.27 1.27 0 0 0-.13.68 1.22 1.22 0 0 0 .13.59.68.68 0 0 0 .34.46 1.4 1.4 0 0 0 .46.33 1.11 1.11 0 0 0 .59.13 1.24 1.24 0 0 0 .67-.13c.13-.12.34-.21.46-.33s.21-.34.34-.46a1.31 1.31 0 0 0 .16-.57zm1.35-52.39h-.59l-.67 1.47-.67-1.47h-.59v2.26h.33v-1.72l.68 1.47h.46l.59-1.47v1.72h.46zm1.85-33.83a58.17 58.17 0 0 0-90.33-48.4c30.29 24.92 30.75 72.06 0 96.85a58.17 58.17 0 0 0 90.33-48.45z"/></symbol><symbol id="error" viewBox="0 0 256 256"><path d="M227 228L126 26 25 228zM114.1 84.34h23V105l-2.34 57.78h-18.5L114.1 105zm.54 96.48h21.24v25.38h-21.24z"/></symbol><symbol id="cart" viewBox="0 0 256 256"><path d="M217.05 183.59L249 45.33l-159.51-1.1a2.68 2.68 0 0 0-2 0l-24.94-.18c-1.28-4.64-2.43-9-3.5-12.88-9-33.49-37.28-29.3-51-22.38A26 26 0 0 0 3 23.47c.71 2.83 5.66 4.3 7.67 3.3a34.66 34.66 0 0 1 15.62-3.07c11.79.2 13.82-1.82 17.34 11.31C55.16 78 82.49 171.75 84.84 179.8l1.07 3.77H86l6.88 21.33 119.23-.53c2.13 0 3.85-2.45 3.84-5.46s-1.72-5.4-3.84-5.41l-106 .51-3.36-10.43zm1-75.22H200l3.18-23h20.26zM210 143.58h-14.92l3.36-24.32h17.14zm-50.25 29.15l-.78-18.27h27.18l-2.53 18.27zm-1.22-29.15l-1-24.32H191l-3.37 24.32zm-74.3-24.32h21l7.27 24.32H91.09zm29.36 0h36.19l1 24.32h-30zm79-10.87H157l-1-23h39.7zm-37-33.81l-.81-19 45 .32-2.57 18.65zm-7.72 0H100.2l-5.8-19.41 52.62.39zm.47 10.87l1 22.94h-39l-6.85-22.94zM102 108.39H81.1l-6.52-22.94h20.51zm-7.74 46.07h21.5l5.48 18.27H99.43zm29.86 0h27.17l.78 18.27h-22.56zm67 18.27l2.53-18.27h13.87l-4.22 18.27zm34.86-98.15h-21.34L207.21 56l23 .17zM86 55.1l5.83 19.48H71.47L65.89 55zm19.82 156.4c-7.73 0-14 8.84-14 19.75s6.27 19.75 14 19.75 14-8.84 14-19.75c-.01-10.91-6.28-19.75-14-19.75zm0 28.64c-3.48 0-6.29-4-6.29-8.88s2.81-8.88 6.29-8.88 6.29 4 6.29 8.88c-.01 4.9-2.82 8.87-6.29 8.88zm80.31-28.64c-7.73 0-14 8.84-14 19.75s6.26 19.75 14 19.75 14-8.84 14-19.75c-.01-10.91-6.27-19.75-14-19.75zm0 28.64c-3.48 0-6.29-4-6.29-8.88s2.81-8.88 6.29-8.88 6.29 4 6.29 8.88c-.01 4.9-2.82 8.87-6.29 8.88z"/></symbol><symbol id="paypal" viewBox="0 0 256 256"><path d="M84.89 128.93a9 9 0 0 1-9.24 9c-3.87 0-6.73-2.18-6.73-6.3a9.11 9.11 0 0 1 9.08-9.21c4 0 6.89 2.39 6.89 6.51zm-44.45-20.37h-2a1.31 1.31 0 0 0-1.34 1.13l-1.81 11.22 3.45-.13c4.62 0 8.19-.63 9-6 1.02-5.59-2.55-6.22-7.3-6.22zm119.32 0h-1.89a1.24 1.24 0 0 0-1.35 1.13l-1.76 11.22 3.36-.13c5.46 0 9.24-1.26 9.24-7.56 0-4.45-4-4.66-7.6-4.66zm88.86-54.5V202a20.18 20.18 0 0 1-20.17 20.17H26.78A20.17 20.17 0 0 1 6.62 202V54.06A20.17 20.17 0 0 1 26.78 33.9h201.67a20.17 20.17 0 0 1 20.17 20.16zM60.52 111c0-8.82-6.81-11.76-14.58-11.76h-16.8a2.23 2.23 0 0 0-2.19 2l-6.89 42.9a1.45 1.45 0 0 0 1.35 1.68h8a2.69 2.69 0 0 0 2.31-2.4l1.89-11.17c.42-3 5.55-2 7.56-2 12 0 19.37-7.14 19.37-19.24zm35.38 3.7h-8c-1.59 0-1.68 2.31-1.76 3.44-2.44-3.57-6-4.2-10-4.2-10.29 0-18.15 9-18.15 19 0 8.19 5.13 13.53 13.32 13.53a16.35 16.35 0 0 0 11.13-5 11.19 11.19 0 0 0-.42 2.6c0 1 .42 1.69 1.35 1.69h7.22c1.14 0 2.11-1.22 2.32-2.4l4.28-27a1.42 1.42 0 0 0-1.34-1.64zm17 41.13l26.76-38.91a.86.86 0 0 0 .21-.71 1.5 1.5 0 0 0-1.34-1.47h-8.07a2.38 2.38 0 0 0-1.89 1l-11.13 16.38-4.62-15.75a2.56 2.56 0 0 0-2.31-1.68h-7.86a1.5 1.5 0 0 0-1.34 1.47c0 .5 8.19 23.86 8.9 26.09-1.13 1.6-8.61 12-8.61 13.28a1.35 1.35 0 0 0 1.34 1.34H111a2.46 2.46 0 0 0 1.89-1.09zM179.84 111c0-8.82-6.81-11.76-14.58-11.76h-16.68a2.32 2.32 0 0 0-2.31 2L139.46 144a1.51 1.51 0 0 0 1.35 1.69h8.61a1.8 1.8 0 0 0 1.68-1.35l1.9-12.17c.42-3 5.55-2 7.57-2 11.93 0 19.28-7.14 19.28-19.24zm35.38 3.7h-8c-1.59 0-1.68 2.31-1.8 3.44-2.31-3.57-5.89-4.2-10-4.2-10.29 0-18.15 9-18.15 19 0 8.19 5.13 13.53 13.32 13.53a15.89 15.89 0 0 0 11.13-5 19.54 19.54 0 0 0-.42 2.6c0 1 .42 1.69 1.35 1.69H210c1.14 0 2.1-1.22 2.31-2.4l4.29-27a1.42 1.42 0 0 0-1.34-1.64zm19.95-14a1.41 1.41 0 0 0-1.34-1.47h-7.77a1.39 1.39 0 0 0-1.35 1.13L217.9 144l-.12.21a1.49 1.49 0 0 0 1.47 1.48h6.93a2.62 2.62 0 0 0 2.19-2.4l6.8-42.52v-.12zm-37.81 21.76a9.08 9.08 0 0 0-9.12 9.24c0 4.08 2.94 6.3 6.81 6.3a9 9 0 0 0 9.12-9c.04-4.19-2.9-6.58-6.81-6.58z"/></symbol><symbol id="close" viewBox="0 0 256 256"><defs><clipPath id="a"><path fill="none" d="M-286.29 8h234.7v234.7h-234.7z"/></clipPath><clipPath id="b"><path fill="none" d="M13.71 8h234.7v234.7H13.71z"/></clipPath></defs><g clip-path="url(#a)"><path fill="none" d="M38 51h158v158H38z"/></g><g clip-path="url(#b)"><path fill="none" d="M13.71 8h234.7v234.7H13.71z"/><path d="M187.77 59.83a9.45 9.45 0 0 0-13.37-.32c-.11.1-.21.21-.32.32l-47.91 47.92-47.92-47.92a9.68 9.68 0 0 0-13.69 13.69l47.91 47.92-47.91 47.91a9.68 9.68 0 0 0 13.69 13.7l47.92-47.92 47.91 47.92a9.68 9.68 0 0 0 13.83-13.56l-.14-.14-47.91-47.91 47.91-47.92a9.45 9.45 0 0 0 .32-13.37c-.09-.15-.21-.22-.32-.32z"/></g></symbol><symbol id="profile" viewBox="0 0 256 256"><path d="M184.31 144.79l-7.15-2.95a117.66 117.66 0 0 0 11.44-51.55C188.6 41.56 161.29 2 127.5 2S66.38 41.49 66.38 90.29a117.51 117.51 0 0 0 11.47 51.51l-7.16 2.95c-22.88 9.45-30.1 39.52-30.1 57.68V215c0 21 11.84 38.12 26.39 38.12H188c14.55 0 26.39-17.1 26.39-38.12v-12.6c0-17.77-7-48.14-30.12-57.67zM127.5 25.51c24.76 0 44.83 29 44.83 64.75S152.3 155 127.5 155s-44.82-29-44.82-64.74 20.07-64.75 44.82-64.75zM198.13 215c0 8-4.52 14.57-10.09 14.57H67c-5.58 0-10.1-6.53-10.1-14.57v-12.57c0-16.27 7.47-30.56 18.29-35l15.67-6.46a51.09 51.09 0 0 0 36.67 17.66 51.09 51.09 0 0 0 36.71-17.67l15.67 6.46c10.83 4.47 18.28 18.77 18.28 35z"/></symbol><symbol id="twitter" viewBox="0 0 256 256"><path d="M221.63 8.82H35.41A25.4 25.4 0 0 0 10 34.22v186.21a25.39 25.39 0 0 0 25.39 25.39h186.24A25.39 25.39 0 0 0 247 220.43V34.22a25.41 25.41 0 0 0-25.37-25.4zm-25.87 84c.11 1.51.11 3 .11 4.53a98 98 0 0 1-97.37 98.7h-1.35a98.31 98.31 0 0 1-53.27-15.55 72.74 72.74 0 0 0 8.35.42 69.56 69.56 0 0 0 43.06-14.81A34.73 34.73 0 0 1 62.87 142a37.44 37.44 0 0 0 15.66-.64 34.67 34.67 0 0 1-27.79-34.07v-.42a34.73 34.73 0 0 0 15.66 4.43 34.81 34.81 0 0 1-10.74-46.39 98.53 98.53 0 0 0 71.53 36.29 34.77 34.77 0 0 1 59.2-31.67 67.73 67.73 0 0 0 22-8.36 34.61 34.61 0 0 1-15.23 19.11 69.44 69.44 0 0 0 20-5.4 72.91 72.91 0 0 1-17.4 17.95z"/></symbol><symbol id="instagram" viewBox="0 0 256 256"><path d="M129.55 66.55a60.77 60.77 0 1 0 60.76 60.77 60.68 60.68 0 0 0-60.56-60.77zm0 100.3a39.51 39.51 0 1 1 39.5-39.52 39.58 39.58 0 0 1-39.5 39.52zM207 64.07a14.14 14.14 0 1 1 0-.06zm40.24 14.39a70.19 70.19 0 0 0-19.19-49.66A70.61 70.61 0 0 0 178.4 9.66c-19.56-1.11-78.2-1.11-97.76 0A70.43 70.43 0 0 0 31 28.75 70.4 70.4 0 0 0 11.85 78.4c-1.11 19.57-1.11 78.21 0 97.78A70.15 70.15 0 0 0 31 225.81 70.65 70.65 0 0 0 80.65 245c19.56 1.1 78.2 1.1 97.76 0a70.18 70.18 0 0 0 49.64-19.15 70.62 70.62 0 0 0 19.14-49.66c1.11-19.57 1.11-78.16 0-97.73zm-25.32 118.69a40 40 0 0 1-22.56 22.56c-15.6 6.19-52.61 4.76-69.85 4.76s-54.29 1.37-69.84-4.76a40 40 0 0 1-22.49-22.56c-6.18-15.6-4.76-52.62-4.76-69.86S31.05 73 37.18 57.44A40 40 0 0 1 59.71 34.9c15.59-6.19 52.6-4.76 69.84-4.76s54.29-1.37 69.84 4.76a40 40 0 0 1 22.53 22.54c6.18 15.6 4.76 52.62 4.76 69.85s1.42 54.34-4.76 69.86z"/></symbol><symbol id="visa" viewBox="0 0 256 256"><path d="M205.12 116.41s3.2 15.63 3.91 18.91H195c1.39-3.74 6.72-18.28 6.72-18.28s1.39-3.82 2.23-6.26l1.17 5.63zm44.5-63.57v147.89a20.18 20.18 0 0 1-20.17 20.17H27.78a20.17 20.17 0 0 1-20.16-20.17V52.84a20.17 20.17 0 0 1 20.16-20.16h201.67a20.17 20.17 0 0 1 20.17 20.16zM71.69 158.38l26.55-65.2H80.38l-16.51 44.53-1.8-9-5.89-30c-1-4.16-3.94-5.34-7.64-5.5H21.36l-.3 1.3a66.89 66.89 0 0 1 17.73 7.18l15 56.72zm39.66.09l10.59-65.29h-16.89L94.5 158.47zm58.78-21.35c.08-7.43-4.46-13.1-14.16-17.77-5.93-3-9.54-5-9.54-8.07.08-2.77 3.07-5.63 9.71-5.63a29.09 29.09 0 0 1 12.56 2.48l1.51.72 2.31-14.12A42 42 0 0 0 157.4 92c-16.68 0-28.41 8.91-28.49 21.59-.13 9.37 8.4 14.58 14.79 17.73s8.74 5.3 8.74 8.11c-.09 4.37-5.3 6.39-10.13 6.39-6.72 0-10.33-1.05-15.84-3.49l-2.22-1-2.36 14.66c4 1.81 11.26 3.41 18.83 3.49 17.73 0 29.28-8.74 29.41-22.27zm59.32 21.35l-13.61-65.29h-13.07c-4 0-7.1 1.17-8.82 5.42l-25.08 59.87h17.73s2.89-8.07 3.53-9.79h21.67c.51 2.31 2 9.79 2 9.79z"/></symbol><symbol id="star" viewBox="0 0 256 256"><path d="M202.6 236.21l-71.84-52.36L58.77 236l27.59-84.5-71.83-52.36 88.89.13 27.6-84.5 27.34 84.58 88.89.14-72 52.14 27.35 84.58z"/></symbol></svg>