<svg xmlns="http://www.w3.org/2000/svg"><symbol id="hamburger" viewBox="0 0 256 256"><defs><clipPath id="a"><path fill="none" d="M9.71 8h234.7v234.7H9.71z"/></clipPath></defs><g clip-path="url(#a)"><path fill="none" d="M9.71 8h234.7v234.7H9.71z"/><path d="M43.07 80.45a9.77 9.77 0 0 0 9.77 9.78h156.47a9.78 9.78 0 0 0 0-19.56H52.84a9.77 9.77 0 0 0-9.77 9.78zm9.77 58.68h156.47a10.52 10.52 0 0 0 9.78-9.78 10.51 10.51 0 0 0-9.78-9.78H52.84a10.5 10.5 0 0 0-9.77 9.78 10.51 10.51 0 0 0 9.77 9.78zm0 48.89h156.47a9.78 9.78 0 0 0 0-19.56H52.84a9.78 9.78 0 0 0 0 19.56z"/></g></symbol><symbol id="error" viewBox="0 0 256 256"><path d="M227 228L126 26 25 228zM114.1 84.34h23V105l-2.34 57.78h-18.5L114.1 105zm.54 96.48h21.24v25.38h-21.24z"/></symbol><symbol id="close" viewBox="0 0 256 256"><defs><clipPath id="a"><path fill="none" d="M-286.29 8h234.7v234.7h-234.7z"/></clipPath><clipPath id="b"><path fill="none" d="M13.71 8h234.7v234.7H13.71z"/></clipPath></defs><g clip-path="url(#a)"><path fill="none" d="M38 51h158v158H38z"/></g><g clip-path="url(#b)"><path fill="none" d="M13.71 8h234.7v234.7H13.71z"/><path d="M187.77 59.83a9.45 9.45 0 0 0-13.37-.32c-.11.1-.21.21-.32.32l-47.91 47.92-47.92-47.92a9.68 9.68 0 0 0-13.69 13.69l47.91 47.92-47.91 47.91a9.68 9.68 0 0 0 13.69 13.7l47.92-47.92 47.91 47.92a9.68 9.68 0 0 0 13.83-13.56l-.14-.14-47.91-47.91 47.91-47.92a9.45 9.45 0 0 0 .32-13.37c-.09-.15-.21-.22-.32-.32z"/></g></symbol><symbol id="fb" viewBox="0 0 256 256"><path d="M245 34.21v186.22a25.41 25.41 0 0 1-25.39 25.39H174.5V152.1h32.05l4.6-35.76H174.5V93.46c0-10.37 2.86-17.4 17.72-17.4h18.93V44.11a254.66 254.66 0 0 0-27.61-1.43c-27.3 0-46 16.67-46 47.3v26.39h-32.18v35.73h32.21v93.72H33.41A25.39 25.39 0 0 1 8 220.43V34.21A25.4 25.4 0 0 1 33.41 8.82h186.21A25.4 25.4 0 0 1 245 34.21z"/></symbol><symbol id="cart" viewBox="0 0 256 256"><path d="M217.05 183.59L249 45.33l-159.51-1.1a2.68 2.68 0 0 0-2 0l-24.94-.18c-1.28-4.64-2.43-9-3.5-12.88-9-33.49-37.28-29.3-51-22.38A26 26 0 0 0 3 23.47c.71 2.83 5.66 4.3 7.67 3.3a34.66 34.66 0 0 1 15.62-3.07c11.79.2 13.82-1.82 17.34 11.31C55.16 78 82.49 171.75 84.84 179.8l1.07 3.77H86l6.88 21.33 119.23-.53c2.13 0 3.85-2.45 3.84-5.46s-1.72-5.4-3.84-5.41l-106 .51-3.36-10.43zm1-75.22H200l3.18-23h20.26zM210 143.58h-14.92l3.36-24.32h17.14zm-50.25 29.15l-.78-18.27h27.18l-2.53 18.27zm-1.22-29.15l-1-24.32H191l-3.37 24.32zm-74.3-24.32h21l7.27 24.32H91.09zm29.36 0h36.19l1 24.32h-30zm79-10.87H157l-1-23h39.7zm-37-33.81l-.81-19 45 .32-2.57 18.65zm-7.72 0H100.2l-5.8-19.41 52.62.39zm.47 10.87l1 22.94h-39l-6.85-22.94zM102 108.39H81.1l-6.52-22.94h20.51zm-7.74 46.07h21.5l5.48 18.27H99.43zm29.86 0h27.17l.78 18.27h-22.56zm67 18.27l2.53-18.27h13.87l-4.22 18.27zm34.86-98.15h-21.34L207.21 56l23 .17zM86 55.1l5.83 19.48H71.47L65.89 55zm19.82 156.4c-7.73 0-14 8.84-14 19.75s6.27 19.75 14 19.75 14-8.84 14-19.75c-.01-10.91-6.28-19.75-14-19.75zm0 28.64c-3.48 0-6.29-4-6.29-8.88s2.81-8.88 6.29-8.88 6.29 4 6.29 8.88c-.01 4.9-2.82 8.87-6.29 8.88zm80.31-28.64c-7.73 0-14 8.84-14 19.75s6.26 19.75 14 19.75 14-8.84 14-19.75c-.01-10.91-6.27-19.75-14-19.75zm0 28.64c-3.48 0-6.29-4-6.29-8.88s2.81-8.88 6.29-8.88 6.29 4 6.29 8.88c-.01 4.9-2.82 8.87-6.29 8.88z"/></symbol><symbol id="profile" viewBox="0 0 256 256"><path d="M184.31 144.79l-7.15-2.95a117.66 117.66 0 0 0 11.44-51.55C188.6 41.56 161.29 2 127.5 2S66.38 41.49 66.38 90.29a117.51 117.51 0 0 0 11.47 51.51l-7.16 2.95c-22.88 9.45-30.1 39.52-30.1 57.68V215c0 21 11.84 38.12 26.39 38.12H188c14.55 0 26.39-17.1 26.39-38.12v-12.6c0-17.77-7-48.14-30.12-57.67zM127.5 25.51c24.76 0 44.83 29 44.83 64.75S152.3 155 127.5 155s-44.82-29-44.82-64.74 20.07-64.75 44.82-64.75zM198.13 215c0 8-4.52 14.57-10.09 14.57H67c-5.58 0-10.1-6.53-10.1-14.57v-12.57c0-16.27 7.47-30.56 18.29-35l15.67-6.46a51.09 51.09 0 0 0 36.67 17.66 51.09 51.09 0 0 0 36.71-17.67l15.67 6.46c10.83 4.47 18.28 18.77 18.28 35z"/></symbol><symbol id="body" viewBox="0 0 256 256"><path stroke="#000" stroke-miterlimit="10" d="M120 104.67a44.06 44.06 0 0 1-8.6-14.38 60.32 60.32 0 0 1-2.5-8.11l-.47-2.08c-.07-.37-.15-.64-.21-1.09s-.13-.65-.18-1.1a23.68 23.68 0 0 1-.16-4.76 22.28 22.28 0 0 1 9.57-16.76 16.35 16.35 0 0 1 21.06 2 22.72 22.72 0 0 1 3.38 4.25c.18.31.33.52.58 1s.44.78.63 1.14c.39.74.74 1.5 1.07 2.27a32.25 32.25 0 0 1 2.24 9.63c.53 6.5-.68 12.65-2.13 18.2-.35 1.38-.75 2.72-1.12 4a31 31 0 0 0-.79 3.12c0 .13 0 .2 0 0a2.63 2.63 0 0 0 0-.49l.09.5a7.94 7.94 0 0 0 .22.8 2.77 2.77 0 0 0 .65 1.06 3.79 3.79 0 0 0 2.76.83 10.42 10.42 0 0 0 4.73-1.28 11.94 11.94 0 0 0 3.84-3.23 7.59 7.59 0 0 0 .62-1l.14-.25.17-.35.45-.92 1.7-3.62c2.24-4.83 4.38-9.7 6.22-14.57a70 70 0 0 0 4-14.21 24.94 24.94 0 0 0 .24-3.23v-1.21.31-.26.41c0 .09.08.27.09.31l.07.14a.54.54 0 0 0 .07.13v-.13a10.7 10.7 0 0 0-1.77-2c-.81-.76-1.76-1.54-2.74-2.31-4-3-8.44-6.22-12.92-9.27-2.25-1.53-4.49-3.11-6.7-4.76s-4.44-3.29-6.64-5c-1.1-.85-2.16-1.77-3.23-2.68s-2-1.68-3.41-3.11a16.21 16.21 0 0 1-3.61-8.74 40.73 40.73 0 0 1-.09-8.55c.26-2.77.72-5.49 1.09-8.18h.74c-.13 5.45-.46 10.92.7 16.18a14.28 14.28 0 0 0 3.44 7 24.79 24.79 0 0 0 3.19 2.39c1.12.76 2.26 1.51 3.4 2.24 9.12 5.9 18.77 11 27.8 17.19a29.29 29.29 0 0 1 6.24 5.52 6 6 0 0 1 1 2 12.09 12.09 0 0 1 .16 2.16 30.57 30.57 0 0 1-.2 4.17A73.09 73.09 0 0 1 170.63 82c-1.89 5.13-4 10.15-6.3 15.11l-1.72 3.72a20.37 20.37 0 0 1-2 3.68 18 18 0 0 1-6.43 5.46 17.5 17.5 0 0 1-8.17 2 10.91 10.91 0 0 1-7.9-3.11 10.17 10.17 0 0 1-2.24-3.73 14 14 0 0 1-.53-2.1l-.07-.51a4.17 4.17 0 0 1 0-.61 8.33 8.33 0 0 1 .11-1.12c.53-2.81 1.49-5.32 2.23-7.94 1.52-5.17 2.65-10.51 2.36-15.86a26.36 26.36 0 0 0-1.59-7.8 20.29 20.29 0 0 0-4-6.77 11 11 0 0 0-6.76-3.51A12.07 12.07 0 0 0 120 60.7a18 18 0 0 0-8.26 13 26.12 26.12 0 0 0 .34 8 67.06 67.06 0 0 0 1.72 7.93 46.69 46.69 0 0 0 6.73 14.61z"/><path stroke="#000" stroke-miterlimit="10" d="M165.46 222.88a83.12 83.12 0 0 0-11.2-3.95 54.69 54.69 0 0 0-11.42-2.09 42.42 42.42 0 0 0-11.3.7 53.94 53.94 0 0 0-10.8 3.46c-7.06 2.93-14 6.86-21.61 10.16A89.49 89.49 0 0 1 74.92 238a53.51 53.51 0 0 1-13.32.37 21.78 21.78 0 0 1-7.61-2.2 13.49 13.49 0 0 1-4-3.06 11.62 11.62 0 0 1-2.72-5.22 12.78 12.78 0 0 1 0-5.54A17.34 17.34 0 0 1 48.9 218a25.58 25.58 0 0 1 4.8-6.2q2.44-2.28 5.1-4.32c1.65-1.28 3.28-2.5 4.9-3.69 6.43-4.78 12.75-9.23 18.41-14.27s10.73-10.44 14.19-16.42a46 46 0 0 0 2.3-4.54c.34-.77.62-1.54.89-2.32l.36-1.13.4-1.4a63.83 63.83 0 0 0 1.92-10.61 79.57 79.57 0 0 0-1.16-22 115.93 115.93 0 0 0-6.29-21.83l-4.39-11.15q-2.11-5.69-4.06-11.47c-1.29-3.86-2.5-7.76-3.56-11.79-.52-2-1-4.07-1.39-6.24a31.34 31.34 0 0 1-.44-3.47 16.2 16.2 0 0 1 0-2.09 12.5 12.5 0 0 1 .12-1.37 7.28 7.28 0 0 1 .72-2.07A5.69 5.69 0 0 1 83 58.06l.29-.23.6-.49 1.18-.94 2.35-1.88 4.69-3.73 9.37-7.45c6.27-4.9 12.69-9.77 18.63-14.83.36-.32.72-.63 1-.93a2 2 0 0 0 .53-.62 11.71 11.71 0 0 0 .86-2.43 42.21 42.21 0 0 0 1-5.68A86.94 86.94 0 0 0 124.2 7l.74-.08a86 86 0 0 1 .38 12 46.41 46.41 0 0 1-.63 6 15.17 15.17 0 0 1-.81 3 4.11 4.11 0 0 1-.89 1.36c-.34.38-.7.74-1.06 1.09-5.77 5.57-11.82 10.75-17.82 16l-9 7.85-4.52 3.93-2.25 2-1.12 1-.57.49-.28.25-.11.15a6.13 6.13 0 0 0-.17 2.66c.11 1 .26 2 .46 2.9.4 1.93.91 3.85 1.47 5.76 1.13 3.81 2.43 7.57 3.81 11.3 2.75 7.48 5.85 14.81 9 22.17a122.9 122.9 0 0 1 7.13 22.94 85.17 85.17 0 0 1 1.49 24 70.52 70.52 0 0 1-2 11.9 42.23 42.23 0 0 1-4.64 11.2c-4.13 7-9.8 12.87-15.83 18.12s-12.62 9.9-19.13 14.5a106.31 106.31 0 0 0-9.42 7.22 18.59 18.59 0 0 0-3.64 4.5 7.91 7.91 0 0 0-1.09 5.33 6.21 6.21 0 0 0 3.4 4.05 17.14 17.14 0 0 0 5.51 1.66 48 48 0 0 0 11.79 0 90.74 90.74 0 0 0 11.71-2 95.78 95.78 0 0 0 11.33-3.64c7.42-2.84 14.54-6.5 22.11-9.19a57.24 57.24 0 0 1 11.68-2.92 45 45 0 0 1 12 0c8 1.07 15.57 4.09 22.64 7.81z"/><path stroke="#000" stroke-miterlimit="10" d="M154.06 128.72c-.21 2.66-.31 5.31-.36 8s-.1 5.3 0 7.94a117.59 117.59 0 0 0 1.17 15.69 47.26 47.26 0 0 0 4.1 14.59 22.24 22.24 0 0 0 1.84 3c.33.46.7.9 1.14 1.43l1.25 1.47q2.53 2.92 5.31 5.58a70.75 70.75 0 0 0 12.11 9.19c2.19 1.33 4.5 2.6 6.86 4 1.18.7 2.34 1.42 3.54 2.22s2.3 1.57 3.4 2.4a47.39 47.39 0 0 1 11.81 12.52 17.63 17.63 0 0 1 2.84 9.53 10.75 10.75 0 0 1-1.79 5.63 12.46 12.46 0 0 1-4.11 3.8 23.61 23.61 0 0 1-9 2.79 53.13 53.13 0 0 1-8.55.32 99.45 99.45 0 0 1-16.31-2.19c-2.65-.54-5.33-1.18-7.88-1.81s-5-1.13-7.61-1.61a103.64 103.64 0 0 0-15.41-1.7 100.43 100.43 0 0 0-15.51.63 94.51 94.51 0 0 0-15.27 3.16 98.21 98.21 0 0 0-28.3 13.79 86.62 86.62 0 0 1 27.24-16.89 91.82 91.82 0 0 1 31.9-6.06 108.64 108.64 0 0 1 16.32 1c2.67.34 5.43.85 8 1.4s5.14 1 7.73 1.49a113.55 113.55 0 0 0 15.29 1.6 45.26 45.26 0 0 0 7.36-.35 16.87 16.87 0 0 0 6.16-1.9 5.11 5.11 0 0 0 1.7-1.57 3.75 3.75 0 0 0 .59-1.86 10.71 10.71 0 0 0-1.75-5.51 40.7 40.7 0 0 0-9.87-10.6c-1-.79-2-1.53-3-2.3s-2.06-1.42-3.14-2.12c-2.18-1.38-4.49-2.75-6.79-4.25a66.9 66.9 0 0 1-12.77-10.6c-1.88-2-3.66-4.1-5.34-6.28l-1.26-1.65c-.37-.5-.82-1.11-1.24-1.75a23.9 23.9 0 0 1-2-3.92 51.53 51.53 0 0 1-3.3-16.27 110.21 110.21 0 0 1 .43-16.15 126.25 126.25 0 0 1 2.47-15.83z"/></symbol><symbol id="mind" viewBox="0 0 256 256"><path fill="#050007" d="M114.62 71.92a36.06 36.06 0 0 1-7.41-14.32 46.41 46.41 0 0 1-1.54-8 48.35 48.35 0 0 1-.24-8.27 34.62 34.62 0 0 1 1.57-8.47 23.59 23.59 0 0 1 4.35-8 18.64 18.64 0 0 1 3.61-3.23 15.3 15.3 0 0 1 4.59-2.09 14.31 14.31 0 0 1 10 1 16.59 16.59 0 0 1 6.9 6.46 21.72 21.72 0 0 1 1.08 2c.29.66.54 1.31.81 2l.7 2 .58 2a42.8 42.8 0 0 1 .87 16.37 87.47 87.47 0 0 1-3.71 15.49c-.37 1.25-.79 2.49-1.07 3.71a12.34 12.34 0 0 0-.31 1.72c0 .56-.05 1.22 0 1.82 0 2.42.78 4.74 2.26 5.38s4 .48 6.32 0 4.88-1.29 7.5-2a38.59 38.59 0 0 1 4.1-.83 19.59 19.59 0 0 1 4.59-.22 19 19 0 0 1 2.35.35 17.36 17.36 0 0 1 2.33.66 14.31 14.31 0 0 1 7.8 6.45 18.94 18.94 0 0 1 1.86 4.52 33.2 33.2 0 0 1 1 8.8 95.52 95.52 0 0 1-1.81 16.23c-.95 5.21-2.13 10.3-3.19 15.34-.26 1.22-.55 2.59-.88 3.93s-.7 2.71-1.19 4.12a19.18 19.18 0 0 1-2.15 4.46 9.53 9.53 0 0 1-2.28 2.38 7.42 7.42 0 0 1-3.65 1.37 9.06 9.06 0 0 1-3.22-.32 15.11 15.11 0 0 1-2.37-.87 35.47 35.47 0 0 1-3.76-2c-2.3-1.39-4.45-2.76-6.65-4a85.2 85.2 0 0 0-13.67-6.6l-1.47-.55v-1.29c0-3.68.07-7.36.16-11s.27-7.36.69-11h.8c.11 1.82.33 3.64.52 5.46l.62 5.46 1.28 10.91-1.48-1.84a73.85 73.85 0 0 1 15.34 5.09c2.44 1.11 4.83 2.33 7.12 3.42 1.13.54 2.26 1.05 3.26 1.43a4.18 4.18 0 0 0 2 .4c.05 0-.09 0-.06-.05s.16-.21.33-.51a13.27 13.27 0 0 0 1-2.68c.31-1.07.57-2.24.81-3.44s.42-2.41.65-3.74c.93-5.21 2-10.33 3-15.36A107.24 107.24 0 0 0 167.44 97a26.42 26.42 0 0 0-.4-6.75 8.94 8.94 0 0 0-2.49-4.84 8.28 8.28 0 0 0-2.27-1.41 13.38 13.38 0 0 0-2.91-.85 25.47 25.47 0 0 0-6.87.14c-2.51.27-5.13.7-7.89.91a25 25 0 0 1-4.33 0 9.73 9.73 0 0 1-4.63-1.55 7.26 7.26 0 0 1-1.84-1.91 8.17 8.17 0 0 1-1-2.27 15.4 15.4 0 0 1-.36-4.37c0-.72.09-1.36.2-2.1a13.45 13.45 0 0 1 .51-2.1c.41-1.29.83-2.53 1.25-3.77a51.25 51.25 0 0 0 3.18-15 33.17 33.17 0 0 0-2.68-14.53l-.75-1.6-.86-1.61-.93-1.55a16 16 0 0 0-1-1.33 11.78 11.78 0 0 0-2.22-2.19 9.26 9.26 0 0 0-2.52-1.44c-3.48-1.4-7.28-.36-10.05 2.72s-4.38 7.65-5.12 12.39c-.19 1.19-.32 2.41-.44 3.63s-.18 2.49-.15 3.73a60.68 60.68 0 0 0 .36 7.49 51.79 51.79 0 0 0 1.39 7.44c.33 1.22.68 2.45 1.12 3.65a31.7 31.7 0 0 0 1.47 3.56z"/><path fill="#050007" d="M165.55 204.23c-7.71-2.8-15.59-5.11-23.5-5.45a48.83 48.83 0 0 0-11.66.93 60.62 60.62 0 0 0-11.18 3.59c-3.66 1.52-7.28 3.33-10.95 5.17s-7.42 3.66-11.31 5.31a91.93 91.93 0 0 1-12 4.24 83.46 83.46 0 0 1-12.58 2.37 49.85 49.85 0 0 1-13.13-.12A19.68 19.68 0 0 1 52.4 218a10.64 10.64 0 0 1-3.09-2.64 8.31 8.31 0 0 1-1.71-4 9.41 9.41 0 0 1 .36-4 13.81 13.81 0 0 1 1.52-3.36 23 23 0 0 1 4.46-5c1.64-1.41 3.34-2.63 5-3.85s3.37-2.41 5.06-3.59a151 151 0 0 0 19.14-15.29 74.7 74.7 0 0 0 8-9.08A46.81 46.81 0 0 0 97 156.76a35 35 0 0 0 1.68-5.58c.2-1 .34-1.88.47-2.86l.34-3q.65-6.06.86-12.13c.17-4 .22-8.09.13-12.11s-.29-8-.7-12a75.6 75.6 0 0 0-2-11.56 35.2 35.2 0 0 0-1.81-5.25 14.12 14.12 0 0 0-2.52-4.05 5.14 5.14 0 0 0-1.34-1 3.3 3.3 0 0 0-.62-.22l-.32-.07-.66-.09a14.24 14.24 0 0 0-4.73.06A4.66 4.66 0 0 0 83 88.42a8.18 8.18 0 0 0-1.44 3.69 39 39 0 0 0 .11 11c.45 3.89 1.19 7.85 1.93 11.84L86 127l1.14 6.12.54 3.07.26 1.52c.06.43.15.83.24 1.23a9.29 9.29 0 0 0 .74 2 3.92 3.92 0 0 0 .92 1.2 2.78 2.78 0 0 0 1.32.56 7.1 7.1 0 0 0 2.11 0 22.34 22.34 0 0 0 5.16-1.51c1.78-.74 3.58-1.57 5.38-2.47 3.6-1.8 7.17-3.84 10.89-5.72 1.86-1 3.74-1.87 5.69-2.71a38.19 38.19 0 0 1 6.09-2.16l-1.18 1.64c.1-3.81.18-7.61.35-11.41s.33-7.61.59-11.41h.8l.78 11.37.81 11.37.09 1.14-1.26.49A60.77 60.77 0 0 0 117 137c-3.43 2.19-6.85 4.47-10.44 6.66-1.8 1.09-3.64 2.17-5.62 3.12a28.46 28.46 0 0 1-6.52 2.34 13.51 13.51 0 0 1-4 .26 9.79 9.79 0 0 1-4.43-1.52 10.52 10.52 0 0 1-3.16-3.34 15.77 15.77 0 0 1-1.58-3.66c-.18-.6-.33-1.19-.45-1.78l-.32-1.51-.67-3-1.4-6q-1.47-6-2.84-12c-.92-4.07-1.73-8.19-2.31-12.46a63 63 0 0 1-.56-6.56 33.62 33.62 0 0 1 .46-7A16.48 16.48 0 0 1 76.39 83 12.78 12.78 0 0 1 80 80a14 14 0 0 1 4.14-1.45 22.17 22.17 0 0 1 7.55 0l.87.14a11.14 11.14 0 0 1 1.14.31 12 12 0 0 1 2.24.92 13.43 13.43 0 0 1 3.45 2.79 21.65 21.65 0 0 1 3.84 6.44 44.09 44.09 0 0 1 2 6.48 83.81 83.81 0 0 1 1.77 12.82 141.94 141.94 0 0 1-.77 25.19q-.75 6.23-1.93 12.38l-.62 3.07c-.22 1-.48 2.13-.8 3.17a39.56 39.56 0 0 1-2.37 6.05 53.9 53.9 0 0 1-7 10.66 88.51 88.51 0 0 1-8.64 9.09c-6.09 5.68-12.74 10.62-19.21 15.71a99.16 99.16 0 0 0-9.26 7.85 17.41 17.41 0 0 0-3.29 4.47 6.77 6.77 0 0 0-.8 4.45 4.22 4.22 0 0 0 2.69 2.68 15.76 15.76 0 0 0 5 1.12 50.52 50.52 0 0 0 11.47-.75 102.92 102.92 0 0 0 22.82-6.35c7.43-3 14.74-6.76 22.77-9.65a58.2 58.2 0 0 1 12.52-3.09 46.65 46.65 0 0 1 12.93.12c8.52 1.25 16.33 4.68 23.44 8.89z"/><path fill="#050007" d="M151.56 109.07c.41 10.81.79 21.55 2.59 31.82a52.51 52.51 0 0 0 4.29 14.37 24 24 0 0 0 1.78 2.93c.16.23.34.44.5.66l.61.74 1.24 1.51c.82 1 1.68 2 2.52 3s1.71 1.94 2.6 2.88a72.7 72.7 0 0 0 11.73 10.27c4.34 3 9.18 5.76 13.53 9.12a77.57 77.57 0 0 1 6.34 5.29 40.61 40.61 0 0 1 5.57 6.3 16.31 16.31 0 0 1 3.29 8.4 9.46 9.46 0 0 1-1.14 5 11.66 11.66 0 0 1-3.43 3.8 23.12 23.12 0 0 1-8.5 3.53 47.92 47.92 0 0 1-8.59 1 105.34 105.34 0 0 1-16.72-1c-2.73-.36-5.49-.81-8.15-1.27s-5.13-.86-7.71-1.19a128 128 0 0 0-15.51-1 99.94 99.94 0 0 0-30.7 4.56c-2.5.76-5 1.64-7.41 2.64s-4.86 2-7.23 3.22a120.88 120.88 0 0 0-13.85 8.08l-.52-.61a82.11 82.11 0 0 1 27-18.8 90.44 90.44 0 0 1 32.59-7.34 99.8 99.8 0 0 1 16.76.76c2.77.35 5.52.84 8.25 1.39s5.18 1.13 7.78 1.6a109.78 109.78 0 0 0 15.47 1.89 57.12 57.12 0 0 0 7.54-.16 20.11 20.11 0 0 0 6.7-1.68 5.51 5.51 0 0 0 3.33-4.46 8.61 8.61 0 0 0-.35-3.32 17.47 17.47 0 0 0-1.45-3.39 36.94 36.94 0 0 0-10.77-11.24 54.56 54.56 0 0 0-6.82-4.07c-2.37-1.21-4.86-2.3-7.32-3.54a65.62 65.62 0 0 1-14.11-9.08c-1.11-.87-2.09-1.88-3.14-2.82s-2-2-2.9-3l-1.38-1.57c-.24-.27-.46-.51-.7-.81s-.5-.62-.73-.95a25.09 25.09 0 0 1-2.37-4 39.74 39.74 0 0 1-2.85-8.34 62.66 62.66 0 0 1-1.3-8.39 77.58 77.58 0 0 1-.3-8.33c0-1.38 0-2.76.11-4.13s.18-2.75.3-4.11a94 94 0 0 1 2.74-16.23z"/></symbol><symbol id="spirit" viewBox="0 0 256 256"><path fill="#050007" d="M124 69.76a29.55 29.55 0 0 1-4.78-7.41 42.48 42.48 0 0 1-2.87-8.4 46.42 46.42 0 0 1-1.21-8.86 37.17 37.17 0 0 1 .61-9.19 26.59 26.59 0 0 1 1.37-4.6 21.52 21.52 0 0 1 2.29-4.41 17.71 17.71 0 0 1 8-6.66 14.89 14.89 0 0 1 10.89-.06 16.29 16.29 0 0 1 8 6.86 12.31 12.31 0 0 1 .61 1.13 9.78 9.78 0 0 1 .52 1.1c.31.71.62 1.42.88 2.15a33.27 33.27 0 0 1 1.33 4.44 37.54 37.54 0 0 1 .88 9.11 60 60 0 0 1-3.45 17.27l-1.34 4.08a20.35 20.35 0 0 0-1 3.87 14.6 14.6 0 0 0 .14 3.93 4.08 4.08 0 0 0 1.59 2.75 5.22 5.22 0 0 0 3.23.63 22.53 22.53 0 0 0 3.91-.7c2.67-.67 5.37-1.64 8.29-2.33a26 26 0 0 1 4.66-.72 13.46 13.46 0 0 1 5.24.75 12.7 12.7 0 0 1 4.59 3 18.11 18.11 0 0 1 3 4.19 33.06 33.06 0 0 1 3 9 85.76 85.76 0 0 1 1.11 8.86 125.54 125.54 0 0 1 .4 17.6 71.61 71.61 0 0 1-1 8.94 83.34 83.34 0 0 1-2.13 8.72 64.08 64.08 0 0 1-3.21 8.48c-.63 1.38-1.34 2.74-2.08 4.08s-1.59 2.64-2.48 3.9a45.37 45.37 0 0 1-2.83 3.67c-1 1.15-1.91 2.19-2.9 3.28-2 2.13-4.05 4.23-6.26 6.23a50.51 50.51 0 0 1-7.13 5.48 31.19 31.19 0 0 1-8.32 3.84 21.34 21.34 0 0 1-4.55.84 20.11 20.11 0 0 1-4.59-.12 21.56 21.56 0 0 1-8.33-3l.34-.73a25.52 25.52 0 0 0 4.07 1c.67.13 1.36.15 2 .22s1.35 0 2 0a17.12 17.12 0 0 0 3.92-.59 20.88 20.88 0 0 0 3.7-1.32c4.77-2.23 8.8-5.9 12.44-9.94 1.83-2 3.56-4.17 5.26-6.39.84-1.08 1.74-2.23 2.53-3.31a39 39 0 0 0 2.16-3.25 60.51 60.51 0 0 0 6-14.66c.7-2.59 1.36-5.27 1.84-7.9s.83-5.29 1.11-8a133.52 133.52 0 0 0 .38-16.54c-.31-10.63-1.57-23.61-13.21-21.1-2.69.29-5.48.87-8.39 1.31a25.87 25.87 0 0 1-4.56.35 8.26 8.26 0 0 1-4.9-1.46 5.91 5.91 0 0 1-1.61-2.17 9.29 9.29 0 0 1-.73-2.4 18.63 18.63 0 0 1-.07-4.59 25.85 25.85 0 0 1 1.09-4.39c.42-1.37.84-2.72 1.21-4.08a50.91 50.91 0 0 0 1.62-8.19 37.69 37.69 0 0 0-.06-8.16 32.73 32.73 0 0 0-1.91-7.71 38.16 38.16 0 0 0-1.61-3.57 23.38 23.38 0 0 0-1.92-3.19 10.66 10.66 0 0 0-5-3.81 8.56 8.56 0 0 0-5.82 0 11.41 11.41 0 0 0-5 3.94 21 21 0 0 0-3.15 6.55 37.57 37.57 0 0 0-1.29 7.75l-.1 2v4c0 .64 0 1.37.11 2.05a51.34 51.34 0 0 0 1.3 8.13 38.71 38.71 0 0 0 2.76 7.87z"/><path fill="#050007" d="M174.07 195.6c-7.63-2.73-15.44-4.89-23.23-5h-1.45l-1.45.06c-1 0-1.92.13-2.88.22s-1.9.26-2.84.38-1.89.35-2.82.59a65.71 65.71 0 0 0-10.94 3.87c-3.59 1.59-7.15 3.44-10.8 5.27s-7.39 3.62-11.29 5.18a80.35 80.35 0 0 1-12.07 3.84c-2.09.48-4.12.87-6.22 1.17s-4.19.54-6.33.66a44.45 44.45 0 0 1-6.52-.08 25.44 25.44 0 0 1-6.74-1.41 15 15 0 0 1-3.35-1.8 9.3 9.3 0 0 1-2.75-3.21 8.13 8.13 0 0 1-.83-4.2 10.62 10.62 0 0 1 1-3.71c2.1-4.41 5.71-7.1 9-9.5s6.67-4.72 10-7.1a110.3 110.3 0 0 0 18.06-15.92 53.84 53.84 0 0 0 6.85-9.67 34.75 34.75 0 0 0 3.87-10.85l.22-1.4.17-1.48c.12-1 .21-2 .3-3 .19-2 .33-4 .45-6 .2-4 .31-8 .3-12s-.14-7.95-.47-11.88A89.25 89.25 0 0 0 109.63 97 31.76 31.76 0 0 0 106 87a6 6 0 0 0-2.57-2.52 2.72 2.72 0 0 0-.56-.17.51.51 0 0 0-.22 0h-.82a6.9 6.9 0 0 0-1.92.12A4.38 4.38 0 0 0 97.24 86a11.34 11.34 0 0 0-1.88 3.9 40.16 40.16 0 0 0-1.27 10.8 112.46 112.46 0 0 0 .64 11.66q.3 3 .71 5.91l.41 3c.06.52.14 1 .22 1.43l.24 1.37a49.69 49.69 0 0 0 9.29 20.51 72.47 72.47 0 0 0 7.7 8.78 96.62 96.62 0 0 0 9 7.64c.81.57 1.6 1.19 2.43 1.73l2.43 1.64a22.48 22.48 0 0 0 5.22 2.22 16.76 16.76 0 0 0 11.38-.43l.38.7a15.69 15.69 0 0 1-5.89 2.29 20.63 20.63 0 0 1-6.42 0 25.24 25.24 0 0 1-6.24-1.77c-2-1-3.72-1.92-5.53-3a75.24 75.24 0 0 1-19.43-15.9 59.74 59.74 0 0 1-7.34-10.58 53.66 53.66 0 0 1-4.62-12.25l-.36-1.61c-.12-.55-.24-1.08-.32-1.56l-.55-3q-.52-3-.95-6.15a102.79 102.79 0 0 1-1-12.63 45.44 45.44 0 0 1 1.59-13.3 19.74 19.74 0 0 1 3.58-6.89 16.15 16.15 0 0 1 1.54-1.56 17.44 17.44 0 0 1 1.84-1.31 13.12 13.12 0 0 1 4.21-1.53 15.35 15.35 0 0 1 4.14-.17l1 .12.48.06a2.54 2.54 0 0 1 .53.1 10.12 10.12 0 0 1 2.33.77 12.26 12.26 0 0 1 3.68 2.64 18.22 18.22 0 0 1 2.37 3.16 39 39 0 0 1 4.25 12.83 90.62 90.62 0 0 1 1.24 12.61 123.31 123.31 0 0 1-.19 12.47q-.37 6.21-1.28 12.33c-.3 2.05-.63 4.08-1 6.11-.19 1-.38 2-.59 3l-.31 1.52-.39 1.58a41.77 41.77 0 0 1-5.22 11.64 60.43 60.43 0 0 1-3.69 5.08c-1.28 1.64-2.67 3.18-4.08 4.69-5.69 6-12.1 11.12-18.51 16.15-3.19 2.54-6.42 5-9.47 7.61a42.81 42.81 0 0 0-4.21 4 13.58 13.58 0 0 0-2.69 4.59c-1.07 3.3.34 5 3.65 5.9a30.85 30.85 0 0 0 10.89.21A99.11 99.11 0 0 0 92.64 203a97.5 97.5 0 0 0 11.13-3.5c7.34-2.8 14.5-6.53 22.33-9.55s16.6-4.82 25.06-3.61c8.47 1.06 16.24 4.4 23.26 8.57z"/><path fill="#050007" d="M158.26 105c1.08 10.28 2.15 20.45 4.3 30.16a56.05 56.05 0 0 0 4.61 13.59 26.39 26.39 0 0 0 1.74 2.79c.57.79 1.47 1.83 2.23 2.76 1.58 1.9 3.2 3.76 4.88 5.55a69.27 69.27 0 0 0 11.14 9.79c4.13 2.87 8.75 5.49 12.91 8.68a53.3 53.3 0 0 1 11.44 11 15.85 15.85 0 0 1 3.25 8 9.19 9.19 0 0 1-1 4.87 11.08 11.08 0 0 1-3.26 3.71 21.77 21.77 0 0 1-8.12 3.48 43.14 43.14 0 0 1-8.21 1 100.64 100.64 0 0 1-16-.87c-2.61-.33-5.24-.75-7.78-1.17-1.23-.19-2.45-.43-3.67-.61s-2.45-.35-3.68-.5a123.52 123.52 0 0 0-14.75-1 96.47 96.47 0 0 0-29.2 4.38c-2.38.73-4.74 1.56-7 2.52s-4.63 1.94-6.89 3.06a117.07 117.07 0 0 0-13.2 7.75l-.52-.61a79.16 79.16 0 0 1 33-21 76.18 76.18 0 0 1 7.72-2.17 87.07 87.07 0 0 1 15.91-2.16 95.09 95.09 0 0 1 16 .67c2.65.33 5.27.79 7.88 1.31s4.93 1 7.4 1.5a103.74 103.74 0 0 0 14.73 1.75 56.43 56.43 0 0 0 7.15-.16 18.75 18.75 0 0 0 6.32-1.61 5.12 5.12 0 0 0 3.09-4.18 11.36 11.36 0 0 0-1.75-6.36 27.58 27.58 0 0 0-4.53-5.82 44 44 0 0 0-5.78-4.82 51.78 51.78 0 0 0-6.52-3.83c-2.27-1.14-4.65-2.16-7-3.33a62.86 62.86 0 0 1-13.53-8.59c-1-.84-2-1.79-3-2.69s-1.91-1.88-2.78-2.89l-1.33-1.5a20.11 20.11 0 0 1-1.35-1.68 26.88 26.88 0 0 1-2.3-3.76 40.8 40.8 0 0 1-2.91-7.85 63 63 0 0 1-1.56-7.92 92.88 92.88 0 0 1-.69-15.78 94.4 94.4 0 0 1 1.81-15.46z"/></symbol><symbol id="paypal" viewBox="0 0 256 256"><path d="M84.89 128.93a9 9 0 0 1-9.24 9c-3.87 0-6.73-2.18-6.73-6.3a9.11 9.11 0 0 1 9.08-9.21c4 0 6.89 2.39 6.89 6.51zm-44.45-20.37h-2a1.31 1.31 0 0 0-1.34 1.13l-1.81 11.22 3.45-.13c4.62 0 8.19-.63 9-6 1.02-5.59-2.55-6.22-7.3-6.22zm119.32 0h-1.89a1.24 1.24 0 0 0-1.35 1.13l-1.76 11.22 3.36-.13c5.46 0 9.24-1.26 9.24-7.56 0-4.45-4-4.66-7.6-4.66zm88.86-54.5V202a20.18 20.18 0 0 1-20.17 20.17H26.78A20.17 20.17 0 0 1 6.62 202V54.06A20.17 20.17 0 0 1 26.78 33.9h201.67a20.17 20.17 0 0 1 20.17 20.16zM60.52 111c0-8.82-6.81-11.76-14.58-11.76h-16.8a2.23 2.23 0 0 0-2.19 2l-6.89 42.9a1.45 1.45 0 0 0 1.35 1.68h8a2.69 2.69 0 0 0 2.31-2.4l1.89-11.17c.42-3 5.55-2 7.56-2 12 0 19.37-7.14 19.37-19.24zm35.38 3.7h-8c-1.59 0-1.68 2.31-1.76 3.44-2.44-3.57-6-4.2-10-4.2-10.29 0-18.15 9-18.15 19 0 8.19 5.13 13.53 13.32 13.53a16.35 16.35 0 0 0 11.13-5 11.19 11.19 0 0 0-.42 2.6c0 1 .42 1.69 1.35 1.69h7.22c1.14 0 2.11-1.22 2.32-2.4l4.28-27a1.42 1.42 0 0 0-1.34-1.64zm17 41.13l26.76-38.91a.86.86 0 0 0 .21-.71 1.5 1.5 0 0 0-1.34-1.47h-8.07a2.38 2.38 0 0 0-1.89 1l-11.13 16.38-4.62-15.75a2.56 2.56 0 0 0-2.31-1.68h-7.86a1.5 1.5 0 0 0-1.34 1.47c0 .5 8.19 23.86 8.9 26.09-1.13 1.6-8.61 12-8.61 13.28a1.35 1.35 0 0 0 1.34 1.34H111a2.46 2.46 0 0 0 1.89-1.09zM179.84 111c0-8.82-6.81-11.76-14.58-11.76h-16.68a2.32 2.32 0 0 0-2.31 2L139.46 144a1.51 1.51 0 0 0 1.35 1.69h8.61a1.8 1.8 0 0 0 1.68-1.35l1.9-12.17c.42-3 5.55-2 7.57-2 11.93 0 19.28-7.14 19.28-19.24zm35.38 3.7h-8c-1.59 0-1.68 2.31-1.8 3.44-2.31-3.57-5.89-4.2-10-4.2-10.29 0-18.15 9-18.15 19 0 8.19 5.13 13.53 13.32 13.53a15.89 15.89 0 0 0 11.13-5 19.54 19.54 0 0 0-.42 2.6c0 1 .42 1.69 1.35 1.69H210c1.14 0 2.1-1.22 2.31-2.4l4.29-27a1.42 1.42 0 0 0-1.34-1.64zm19.95-14a1.41 1.41 0 0 0-1.34-1.47h-7.77a1.39 1.39 0 0 0-1.35 1.13L217.9 144l-.12.21a1.49 1.49 0 0 0 1.47 1.48h6.93a2.62 2.62 0 0 0 2.19-2.4l6.8-42.52v-.12zm-37.81 21.76a9.08 9.08 0 0 0-9.12 9.24c0 4.08 2.94 6.3 6.81 6.3a9 9 0 0 0 9.12-9c.04-4.19-2.9-6.58-6.81-6.58z"/></symbol><symbol id="mc" viewBox="0 0 256 256"><path d="M208.94 192.41a4.71 4.71 0 1 1-4.7-4.91 4.69 4.69 0 0 1 4.7 4.91zM78.36 187.5a4.57 4.57 0 0 0-4.7 4.91c0 2.74 1.72 4.92 4.7 4.92 2.73 0 4.58-2.06 4.58-4.92s-1.85-4.91-4.58-4.91zm49.37-.13a3.89 3.89 0 0 0-4 3.66h8c-.35-2.4-1.82-3.66-4-3.66zm45.29.13c-2.86 0-4.58 2.18-4.58 4.91s1.72 4.92 4.58 4.92a4.57 4.57 0 0 0 4.7-4.92 4.64 4.64 0 0 0-4.72-4.91zm44.49 11c0 .13.13.21.13.47s-.13.21-.13.46a2.09 2.09 0 0 0-.21.34.55.55 0 0 1-.46.21c-.13.12-.21.12-.46.12a.9.9 0 0 1-.47-.12c-.12 0-.21-.13-.33-.21s-.21-.21-.21-.34a.75.75 0 0 1-.13-.46c0-.21 0-.34.13-.47a.76.76 0 0 1 .21-.46c.12-.12.21-.12.33-.21a.81.81 0 0 1 .47-.12.58.58 0 0 1 .46.12c.21.13.34.13.46.21s.09.21.21.42zm-.92.59c.21 0 .21-.12.33-.12a.51.51 0 0 0 0-.68c-.12 0-.21-.12-.46-.12h-.67v1.47h.33V199h.13l.46.59h.34l-.46-.55zm31.47-145V202a20.18 20.18 0 0 1-20.17 20.17H26.22A20.17 20.17 0 0 1 6.06 202V54.06A20.17 20.17 0 0 1 26.22 33.9h201.67a20.17 20.17 0 0 1 20.17 20.16zM32.94 112.71a58.17 58.17 0 0 0 90.33 48.49c-30.62-24.92-30.41-71.93 0-96.84a58.16 58.16 0 0 0-90.33 48.35zm94.12 45.72c29.62-23.11 29.49-68.15 0-91.38-29.5 23.23-29.62 68.31 0 91.38zm-59.79 32c0-3.65-2.4-6-6.18-6.17a6 6 0 0 0-5.37 2.74 5.56 5.56 0 0 0-5.13-2.73 5.32 5.32 0 0 0-4.45 2.26v-1.84h-3.45v15.42h3.45c0-8-1-12.69 3.78-12.69 4.28 0 3.44 4.28 3.44 12.69h3.32c0-7.69-1-12.69 3.78-12.69 4.29 0 3.45 4.2 3.45 12.69h3.44v-9.67zm18.86-5.75h-3.32v1.84a6.06 6.06 0 0 0-4.91-2.26c-4.33 0-7.65 3.44-7.65 8.1s3.32 8.11 7.65 8.11a5.79 5.79 0 0 0 4.91-2.27v1.94h3.32zm17 10.75c0-6.3-9.62-3.44-9.62-6.38 0-2.4 5-2 7.77-.47l1.39-2.73c-4-2.56-12.69-2.52-12.69 3.45s9.62 3.48 9.62 6.3c0 2.65-5.67 2.44-8.7.34l-1.47 2.64c4.71 3.2 13.7 2.52 13.7-3.15zm14.87 3.96l-.92-2.86c-1.6.88-5.13 1.85-5.13-1.72v-7h5.51v-3.11H112V180h-3.44v4.71h-3.2v3.06h3.2v7c0 7.39 7.27 6.05 9.49 4.58zm5.59-5.63h11.55c0-6.81-3.1-9.5-7.31-9.5-4.45 0-7.64 3.32-7.64 8.11 0 8.62 9.49 10 14.2 6l-1.6-2.52c-3.26 2.66-8.21 2.4-9.18-2.09zm24.83-9a4.94 4.94 0 0 0-6.39 1.84v-1.84h-3.44v15.42h3.44v-8.7c0-4.88 4-4.24 5.38-3.53l1-3.19zm4.45 7.68c0-4.78 4.88-6.34 8.7-3.52l1.6-2.74c-4.88-3.82-13.74-1.72-13.74 6.31 0 8.32 9.41 10 13.74 6.3l-1.6-2.73c-3.84 2.7-8.68 1.06-8.68-3.65zm28-7.68h-3.45v1.84c-3.48-4.62-12.56-2-12.56 5.84 0 8.07 9.41 10.38 12.56 5.84v1.94h3.45zm14.16 0c-1-.51-4.63-1.22-6.39 1.84v-1.84h-3.32v15.42h3.32v-8.7c0-4.62 3.78-4.33 5.38-3.53l1-3.19zm16.97-6.29h-3.32v8.1c-3.45-4.57-12.56-2.14-12.56 5.84 0 8.16 9.45 10.34 12.56 5.84v1.94H212v-21.72zm3.19-31.56v1.94h.34v-1.94h.8v-.33h-1.93v.33zm2.77 52a1.37 1.37 0 0 0-.12-.68c-.13-.12-.21-.33-.34-.46s-.33-.21-.46-.33-.46-.13-.67-.13a4.62 4.62 0 0 1-.59.13 2 2 0 0 0-.46.33.68.68 0 0 0-.34.46 1.27 1.27 0 0 0-.13.68 1.22 1.22 0 0 0 .13.59.68.68 0 0 0 .34.46 1.4 1.4 0 0 0 .46.33 1.11 1.11 0 0 0 .59.13 1.24 1.24 0 0 0 .67-.13c.13-.12.34-.21.46-.33s.21-.34.34-.46a1.31 1.31 0 0 0 .16-.57zm1.35-52.39h-.59l-.67 1.47-.67-1.47h-.59v2.26h.33v-1.72l.68 1.47h.46l.59-1.47v1.72h.46zm1.85-33.83a58.17 58.17 0 0 0-90.33-48.4c30.29 24.92 30.75 72.06 0 96.85a58.17 58.17 0 0 0 90.33-48.45z"/></symbol><symbol id="visa" viewBox="0 0 256 256"><path d="M205.12 116.41s3.2 15.63 3.91 18.91H195c1.39-3.74 6.72-18.28 6.72-18.28s1.39-3.82 2.23-6.26l1.17 5.63zm44.5-63.57v147.89a20.18 20.18 0 0 1-20.17 20.17H27.78a20.17 20.17 0 0 1-20.16-20.17V52.84a20.17 20.17 0 0 1 20.16-20.16h201.67a20.17 20.17 0 0 1 20.17 20.16zM71.69 158.38l26.55-65.2H80.38l-16.51 44.53-1.8-9-5.89-30c-1-4.16-3.94-5.34-7.64-5.5H21.36l-.3 1.3a66.89 66.89 0 0 1 17.73 7.18l15 56.72zm39.66.09l10.59-65.29h-16.89L94.5 158.47zm58.78-21.35c.08-7.43-4.46-13.1-14.16-17.77-5.93-3-9.54-5-9.54-8.07.08-2.77 3.07-5.63 9.71-5.63a29.09 29.09 0 0 1 12.56 2.48l1.51.72 2.31-14.12A42 42 0 0 0 157.4 92c-16.68 0-28.41 8.91-28.49 21.59-.13 9.37 8.4 14.58 14.79 17.73s8.74 5.3 8.74 8.11c-.09 4.37-5.3 6.39-10.13 6.39-6.72 0-10.33-1.05-15.84-3.49l-2.22-1-2.36 14.66c4 1.81 11.26 3.41 18.83 3.49 17.73 0 29.28-8.74 29.41-22.27zm59.32 21.35l-13.61-65.29h-13.07c-4 0-7.1 1.17-8.82 5.42l-25.08 59.87h17.73s2.89-8.07 3.53-9.79h21.67c.51 2.31 2 9.79 2 9.79z"/></symbol><symbol id="star" viewBox="0 0 256 256"><path d="M202.6 236.21l-71.84-52.36L58.77 236l27.59-84.5-71.83-52.36 88.89.13 27.6-84.5 27.34 84.58 88.89.14-72 52.14 27.35 84.58z"/></symbol><symbol id="twitter" viewBox="0 0 256 256"><path d="M221.63 8.82H35.41A25.4 25.4 0 0 0 10 34.22v186.21a25.39 25.39 0 0 0 25.39 25.39h186.24A25.39 25.39 0 0 0 247 220.43V34.22a25.41 25.41 0 0 0-25.37-25.4zm-25.87 84c.11 1.51.11 3 .11 4.53a98 98 0 0 1-97.37 98.7h-1.35a98.31 98.31 0 0 1-53.27-15.55 72.74 72.74 0 0 0 8.35.42 69.56 69.56 0 0 0 43.06-14.81A34.73 34.73 0 0 1 62.87 142a37.44 37.44 0 0 0 15.66-.64 34.67 34.67 0 0 1-27.79-34.07v-.42a34.73 34.73 0 0 0 15.66 4.43 34.81 34.81 0 0 1-10.74-46.39 98.53 98.53 0 0 0 71.53 36.29 34.77 34.77 0 0 1 59.2-31.67 67.73 67.73 0 0 0 22-8.36 34.61 34.61 0 0 1-15.23 19.11 69.44 69.44 0 0 0 20-5.4 72.91 72.91 0 0 1-17.4 17.95z"/></symbol><symbol id="instagram" viewBox="0 0 256 256"><path d="M129.55 66.55a60.77 60.77 0 1 0 60.76 60.77 60.68 60.68 0 0 0-60.56-60.77zm0 100.3a39.51 39.51 0 1 1 39.5-39.52 39.58 39.58 0 0 1-39.5 39.52zM207 64.07a14.14 14.14 0 1 1 0-.06zm40.24 14.39a70.19 70.19 0 0 0-19.19-49.66A70.61 70.61 0 0 0 178.4 9.66c-19.56-1.11-78.2-1.11-97.76 0A70.43 70.43 0 0 0 31 28.75 70.4 70.4 0 0 0 11.85 78.4c-1.11 19.57-1.11 78.21 0 97.78A70.15 70.15 0 0 0 31 225.81 70.65 70.65 0 0 0 80.65 245c19.56 1.1 78.2 1.1 97.76 0a70.18 70.18 0 0 0 49.64-19.15 70.62 70.62 0 0 0 19.14-49.66c1.11-19.57 1.11-78.16 0-97.73zm-25.32 118.69a40 40 0 0 1-22.56 22.56c-15.6 6.19-52.61 4.76-69.85 4.76s-54.29 1.37-69.84-4.76a40 40 0 0 1-22.49-22.56c-6.18-15.6-4.76-52.62-4.76-69.86S31.05 73 37.18 57.44A40 40 0 0 1 59.71 34.9c15.59-6.19 52.6-4.76 69.84-4.76s54.29-1.37 69.84 4.76a40 40 0 0 1 22.53 22.54c6.18 15.6 4.76 52.62 4.76 69.85s1.42 54.34-4.76 69.86z"/></symbol></svg>