<svg xmlns="http://www.w3.org/2000/svg" width="196" height="196" viewBox="0 0 196 196"><path fill="#7b9ea6" d="M152.11 106.44a95.13 95.13 0 0 0-7.36-13.38C130.32 71 117 48.31 106.28 24.26Q101.26 13 97 1.51c-8.7 22.34-18.66 44.26-31.36 64.58C55.05 83 42.42 99.19 37 118.39c-3.36 11.94-3.73 24.84-.19 36.74s11.1 22.7 21.56 29.39 22.9 9 35.17 9.46c15.32.61 31.48-1.77 43.71-11 8.39-6.34 14.36-15.55 17.86-25.46 6.18-17.52 4.17-35.04-3-51.08zm-14.63 76s4.35-7.83-32.94-39.16c-13.09-11-23.56-23.6-28.27-40.24s5-65.32 5-65.31C78.75 51.69 79.21 64 84.73 77 89 87 91.3 90.57 97.59 97.73c10.46 11.88 21.84 21.16 29.65 35 7.62 13.57 11.65 34.14 10.24 49.75z"/></svg>