<svg xmlns="http://www.w3.org/2000/svg" width="48" height="48" viewBox="0 0 48 48"><path fill="#7b9ea6" d="M37.12 26a23.08 23.08 0 0 0-1.75-3.19A117.94 117.94 0 0 1 26.2 6.45Q25 3.78 24 1a91.86 91.86 0 0 1-7.47 15.39C14 20.45 11 24.3 9.71 28.87a15.78 15.78 0 0 0-.05 8.75 12.56 12.56 0 0 0 5.13 7 16.73 16.73 0 0 0 8.38 2.26c3.65.14 7.5-.42 10.41-2.62a13 13 0 0 0 4.26-6.07A16.08 16.08 0 0 0 37.12 26zm-3.48 18.14s1-1.87-7.85-9.33c-3.12-2.62-5.61-5.62-6.73-9.58s1.18-15.56 1.18-15.56a15.69 15.69 0 0 0 .83 9.33 14.77 14.77 0 0 0 3.07 5c2.49 2.83 5.2 5 7.06 8.35a22.59 22.59 0 0 1 2.44 11.79z"/></svg>