<?xml version="1.0" encoding="utf-8"?>
<!-- Generator: Adobe Illustrator 24.0.3, SVG Export Plug-In . SVG Version: 6.00 Build 0)  -->
<svg version="1.1" id="Layer_1" xmlns="http://www.w3.org/2000/svg" xmlns:xlink="http://www.w3.org/1999/xlink" x="0px" y="0px"
	 viewBox="0 0 1242.6 442.2" style="enable-background:new 0 0 1242.6 442.2;" xml:space="preserve">
<style type="text/css">
	.st0{fill:#7B9EA6;}
	.st1{fill:#F2F2E9;}
</style>
<path class="st0" d="M242.2,215.4c-3.9-8.6-8.4-16.8-13.6-24.7c-26.6-40.6-51.1-82.6-71-126.9c-6.2-13.8-11.9-27.8-17.1-42
	c-16,41.2-34.4,81.7-57.9,119.2c-19.5,31.2-42.8,61.1-52.8,96.5c-6.2,22-6.9,45.8-0.4,67.8s20.5,41.9,39.8,54.2
	c19.1,12.2,42.2,16.6,64.9,17.5c28.3,1.1,58.1-3.3,80.6-20.3c15.5-11.7,26.5-28.7,32.9-47C259.1,277.3,255.4,245,242.2,215.4
	L242.2,215.4z M215.2,355.7c0,0,8-14.5-60.8-72.2c-24.1-20.3-43.5-43.5-52.2-74.2s9.2-120.5,9.2-120.5c-4.6,25.7-3.8,48.3,6.4,72.3
	c7.8,18.4,12.1,25.1,23.7,38.3c19.3,21.9,40.3,39,54.7,64.6C210.4,288.9,217.8,326.9,215.2,355.7L215.2,355.7z"/>
<path class="st1" d="M286.3,178.6V22.2h90.6l3.7,20.2H312v46.7h52l3.9,20.2H312v49h74.5l3.9,20.2L286.3,178.6z M402.2,170.7
	l7.8-17.9c10.6,5.1,20.5,7.6,29.7,7.6c5.2,0.1,10.3-1,15-3.2c4.1-2.1,6.2-5.1,6.2-8.7c0-6.7-7.4-12.5-22.1-17.2
	c-24.5-8-36.8-19.3-36.8-34c0-10.3,3.8-18.4,11.5-24.3c7.7-5.9,18.1-8.9,31.3-8.9c6.4,0.2,12.7,1.2,18.7,3c6.5,1.6,12.7,4.3,18.3,8
	l-8,17.5c-4.8-2.2-9.8-4.1-14.8-5.6c-4.7-1.3-9.7-2-14.6-2c-4.3-0.2-8.5,1-12,3.4c-3.2,2.3-4.8,5.1-4.8,8.5c0.2,2.6,2,5,5.5,7.1
	c4.7,2.7,9.6,4.8,14.7,6.4c25.3,9,38,21.3,38,36.8c0,10.9-3.9,19.3-11.9,25.3c-7.9,6-19.3,9-34.1,9c-6.6-0.2-13.1-1.1-19.4-2.9
	C412.8,176.8,406.8,174.1,402.2,170.7z M499,170.7l7.8-17.9c10.6,5.1,20.5,7.6,29.7,7.6c5.2,0.2,10.3-1,15-3.2
	c4.1-2.1,6.2-5.1,6.2-8.7c0-6.7-7.4-12.5-22.1-17.2c-24.5-8-36.8-19.3-36.8-34c0-10.3,3.8-18.4,11.5-24.3C518,67,528.4,64,541.6,64
	c6.4,0.2,12.7,1.2,18.8,3c6.5,1.6,12.7,4.3,18.3,8l-8,17.5c-4.8-2.2-9.8-4.1-14.8-5.6c-4.8-1.3-9.7-2-14.6-2
	c-4.3-0.2-8.5,1.1-12,3.4c-3.2,2.3-4.8,5.1-4.8,8.5c0.2,2.6,2,5,5.5,7.1c4.7,2.6,9.6,4.8,14.7,6.4c25.3,9,38,21.3,38,36.8
	c0,10.9-3.9,19.3-11.8,25.3c-7.9,6-19.3,9-34.2,9c-6.6-0.1-13.1-1.1-19.4-2.9C509.6,176.7,503.6,174.1,499,170.7L499,170.7z
	 M699.6,129.6h-77.3c2.3,19.9,14.2,29.9,35.7,29.9c5.4,0.1,10.8-0.7,16-2.4c5.8-2.1,11.4-4.6,16.9-7.5l7.8,18.9
	c-12.1,8.5-26.4,13-41.2,12.9c-20.2,0-35.7-5.3-46.3-15.8c-10.7-10.5-16-24.8-16-42.9c0-11.7,2.2-21.9,6.6-30.7
	c4.1-8.6,10.7-15.7,18.9-20.6c8.2-4.9,17.9-7.4,29.1-7.4c16.4,0,28.8,5.4,37.3,16.3c8.4,10.9,12.6,24.8,12.7,41.7V129.6z
	 M622.8,112.3h52c-1.4-8.6-4.2-15.1-8.5-19.6s-10-6.7-17.3-6.7c-7.3,0-13.3,2.3-17.8,6.9C626.6,97.6,623.8,104,622.8,112.3z
	 M744.9,178.6h-25.8V67h17.2l4.6,13.3c6.4-5.2,13.5-9.4,21.2-12.4c6.8-2.9,14.2-4.5,21.6-4.6c13,0,22.5,3.9,28.3,11.6
	c5.8,7.7,8.7,18.4,8.7,31.9v71.8h-26v-70.2c0-15.5-5.8-23.2-17.2-23.2c-9.3,0-20.2,5.1-32.7,15.4L744.9,178.6z M897.4,67.9l7.8,19.8
	h-28.1v53.1c0,6,1.3,10.8,4,14.4c2.7,3.6,6.7,5.4,12.1,5.4c4-0.1,7.9-1,11.5-2.8l7.2,19.1c-3,1.8-6.2,3.2-9.5,4
	c-3.6,1.1-7.4,1.7-11.2,1.7c-12.4,0-22.2-3.2-29.2-9.7s-10.6-15.7-10.6-27.8V87.7H836V67.9h15.4V40.6l25.8-5.1v32.4H897.4z
	 M941.8,49.1c-4,0.1-7.9-1.5-10.7-4.5c-2.8-2.9-4.3-6.9-4.2-10.9c0-4,1.5-7.8,4.4-10.7c2.7-2.9,6.6-4.5,10.6-4.5
	c4.1-0.1,8.1,1.5,10.9,4.5c2.9,2.8,4.5,6.7,4.5,10.7c0,8.5-6.8,15.4-15.2,15.4C941.9,49.1,941.8,49.1,941.8,49.1L941.8,49.1z
	 M929.1,178.6V67h26v111.6H929.1z M991.9,95.1l-7.1-21.2c4-2.6,10.2-4.9,18.5-6.9s15.1-3,20.3-3c8.2-0.1,16.2,1.7,23.6,5.3
	c6.8,3.2,12.6,8.2,16.9,14.4c4.1,6,6.3,13.1,6.2,20.4v74.5h-17.2l-3.9-11.3c-4.3,4.2-9.3,7.6-14.7,10.1c-5.2,2.5-10.8,3.9-16.6,3.9
	c-12.9,0-22.7-3.2-29.3-9.7c-6.7-6.4-10-15-10-25.8c0-11.2,3.8-19.9,11.4-26c7.6-6.1,17.6-9.2,30-9.2h24.4
	c-0.3-15.5-7-23.2-20.2-23.2C1014,87.5,1003.3,90,991.9,95.1z M1001.1,145.9c0,3.9,1.6,7.7,4.4,10.5c2.9,3,6.9,4.5,12,4.5
	c5,0,9.8-1.2,14.3-3.4c4.8-2.4,9.2-5.5,12.9-9.4v-20h-25.1c-5.7,0-10.2,1.7-13.5,5.2C1002.8,136.6,1001,141.2,1001.1,145.9z
	 M1098.4,178.6V18.7l25.8-2.5v162.4H1098.4z M286.3,374V217.6h90.6l3.7,20.2H312v46.7h52l3.9,20.2H312v49h74.5l3.9,20.2H286.3z
	 M410.7,374V214.2l25.8-2.5V374H410.7z M562.8,325h-77.3c2.3,19.9,14.2,29.9,35.6,29.9c5.4,0.1,10.8-0.7,16-2.4
	c5.8-2.1,11.4-4.6,16.9-7.5l7.8,18.9c-12.1,8.5-26.4,13-41.2,12.9c-20.2,0-35.7-5.3-46.3-15.8c-10.7-10.5-16-24.8-16-42.9
	c0-11.6,2.2-21.9,6.5-30.7c4.1-8.6,10.7-15.7,18.9-20.6c8.2-4.9,17.9-7.4,29.1-7.4c16.4,0,28.8,5.4,37.2,16.3s12.7,24.8,12.7,41.6
	L562.8,325z M485.9,307.8h52c-1.4-8.6-4.2-15.1-8.5-19.5s-10-6.7-17.2-6.7c-7.3,0-13.3,2.3-17.8,6.9S487,299.5,485.9,307.8
	L485.9,307.8z M743.2,269.6c5.8,7.2,8.6,17.3,8.6,30.4v74h-26v-70.1c0-7.7-1.2-13.5-3.6-17.4s-6.4-5.9-12.1-5.9
	c-4.9,0.1-9.7,1.5-14,3.9c-5.6,3.1-10.9,6.6-15.9,10.6c0.2,1.6,0.3,3.2,0.2,4.8v74h-26v-70.1c0-7.7-1.2-13.5-3.6-17.4
	s-6.4-5.9-12.1-5.9c-8.1,0-18.4,5.1-30.8,15.4v78h-25.8V262.5h17.2l4.6,13.3c6.3-5.1,13.2-9.3,20.7-12.4c7.3-3.1,14.1-4.6,20.2-4.6
	c15,0,25.2,5.6,30.6,16.8c6.3-5,13.2-9.1,20.6-12.2c7.3-3.1,14-4.6,20.1-4.6C728.5,258.8,737.4,262.4,743.2,269.6L743.2,269.6z
	 M874.8,325h-77.3c2.3,19.9,14.2,29.9,35.7,29.9c5.4,0.1,10.8-0.7,16-2.4c5.8-2.1,11.4-4.6,16.9-7.5l7.8,18.9
	c-12,8.5-26.4,13-41.2,12.9c-20.2,0-35.7-5.3-46.3-15.8c-10.7-10.5-16-24.8-16-42.9c0-11.6,2.2-21.9,6.6-30.7
	c4.1-8.6,10.7-15.7,18.9-20.6c8.2-4.9,17.9-7.4,29.1-7.4c16.4,0,28.8,5.4,37.3,16.3c8.4,10.9,12.6,24.8,12.7,41.6L874.8,325z
	 M798,307.8h52c-1.4-8.6-4.2-15.1-8.5-19.5s-10-6.7-17.2-6.7c-7.3,0-13.3,2.3-17.8,6.9C801.9,293.1,799.1,299.5,798,307.8z
	 M920.2,374h-25.8V262.5h17.2l4.6,13.3c6.4-5.2,13.5-9.4,21.2-12.4c6.8-2.9,14.2-4.5,21.6-4.6c13,0,22.5,3.9,28.3,11.6
	c5.8,7.7,8.7,18.4,8.7,31.9V374h-26v-70.1c0-15.5-5.8-23.2-17.2-23.2c-9.3,0-20.2,5.1-32.7,15.4L920.2,374z M1072.7,263.4l7.8,19.8
	h-28.1v53.1c0,6,1.3,10.8,4,14.4c2.7,3.6,6.7,5.4,12.1,5.4c4-0.1,7.9-1,11.5-2.8l7.1,19.1c-3,1.8-6.2,3.2-9.6,4
	c-3.6,1.1-7.4,1.7-11.2,1.7c-12.4,0-22.2-3.2-29.2-9.7c-7.1-6.4-10.6-15.7-10.6-27.8v-57.5h-15.4v-19.8h15.4V236l25.8-5.1v32.4
	L1072.7,263.4z M1098.2,366.2l7.8-17.9c10.6,5.1,20.5,7.6,29.7,7.6c5.2,0.1,10.3-1,14.9-3.2c4.1-2.1,6.2-5.1,6.2-8.7
	c0-6.7-7.4-12.5-22.1-17.2c-24.5-8-36.8-19.3-36.8-34c0-10.3,3.8-18.4,11.5-24.3s18.1-8.9,31.3-8.9c6.4,0.2,12.7,1.2,18.8,3
	c6.5,1.6,12.7,4.4,18.3,8l-8,17.5c-4.8-2.2-9.8-4.1-14.8-5.6c-4.8-1.3-9.7-2-14.6-2c-4.3-0.2-8.5,1.1-12,3.5
	c-3.2,2.3-4.8,5.1-4.8,8.5c0.1,2.6,2,5,5.5,7.1c4.7,2.7,9.6,4.8,14.7,6.4c25.3,9,38,21.3,38,36.8c0,10.9-3.9,19.3-11.8,25.3
	s-19.3,9-34.2,9c-6.6-0.1-13.1-1.1-19.4-2.9C1108.8,372.3,1102.8,369.6,1098.2,366.2L1098.2,366.2z"/>
</svg>
