<svg xmlns="http://www.w3.org/2000/svg" width="32" height="32" viewBox="0 0 32 32"><path fill="#7b9ea6" d="M24.24 17.48a16 16 0 0 0-1.18-2.14 79.18 79.18 0 0 1-6.14-11c-.53-1.19-1-2.4-1.48-3.63a61 61 0 0 1-5 10.31c-1.69 2.7-3.7 5.28-4.56 8.35a10.52 10.52 0 0 0 0 5.86 8.4 8.4 0 0 0 3.44 4.69 11.15 11.15 0 0 0 5.61 1.51 10.78 10.78 0 0 0 7-1.76 8.74 8.74 0 0 0 2.85-4.06 10.83 10.83 0 0 0-.54-8.13zM21.9 29.62s.7-1.25-5.26-6.25a13 13 0 0 1-4.51-6.43c-.75-2.66.8-10.42.8-10.42a10.47 10.47 0 0 0 .55 6.26 10 10 0 0 0 2 3.31C17.2 18 19 19.47 20.27 21.68a15.08 15.08 0 0 1 1.63 7.94z"/></svg>