<svg xmlns="http://www.w3.org/2000/svg" width="1242.62" height="442.22" viewBox="0 0 1242.62 442.22"><path fill="#7b9ea6" d="M242.2 215.38a177.26 177.26 0 0 0-13.57-24.69c-26.63-40.62-51.13-82.56-71-126.94q-9.25-20.7-17.15-42C124.44 63 106.05 103.44 82.63 140.94c-19.51 31.21-42.8 61.06-52.78 96.48-6.22 22-6.89 45.84-.36 67.78S50 347.08 69.26 359.43c19.1 12.22 42.25 16.56 64.9 17.46 28.26 1.13 58.08-3.27 80.64-20.32 15.48-11.7 26.49-28.68 32.94-47 11.4-32.27 7.68-64.57-5.54-94.19zm-27 140.29s8-14.45-60.78-72.25c-24.14-20.28-43.46-43.54-52.15-74.24s9.18-120.52 9.17-120.49c-4.59 25.67-3.76 48.31 6.44 72.31 7.82 18.41 12.11 25.1 23.72 38.3 19.29 21.93 40.29 39 54.7 64.64 14.07 24.97 21.5 62.93 18.91 91.73z"/><path fill="#593f2f" d="M286.29 178.56V22.16h90.62l3.68 20.24h-68.54v46.69h52l3.91 20.24h-55.91v49h74.52l3.91 20.24zm115.92-7.82L410 152.8q15.87 7.59 29.67 7.59a32.23 32.23 0 0 0 14.95-3.22q6.21-3.22 6.21-8.74 0-10.12-22.08-17.25-36.81-12-36.8-34 0-15.42 11.5-24.27T444.76 64a72.48 72.48 0 0 1 18.74 3 60 60 0 0 1 18.29 8l-8.05 17.48a108.48 108.48 0 0 0-14.84-5.58 52.63 52.63 0 0 0-14.6-2 20 20 0 0 0-12 3.45q-4.83 3.45-4.83 8.51.23 3.9 5.52 7.13a77.26 77.26 0 0 0 14.72 6.44q38 13.56 37.95 36.8 0 16.32-11.85 25.3t-34.15 9a79.33 79.33 0 0 1-19.44-2.88q-11.12-2.84-18.01-7.91zm96.79 0l7.82-17.94q15.87 7.59 29.67 7.59a32.2 32.2 0 0 0 15-3.22q6.21-3.22 6.21-8.74 0-10.12-22.08-17.25-36.8-12-36.8-34 0-15.42 11.5-24.27T541.58 64a72.49 72.49 0 0 1 18.75 3 59.8 59.8 0 0 1 18.28 8l-8.05 17.48a107.9 107.9 0 0 0-14.83-5.64 52.65 52.65 0 0 0-14.61-2 20.06 20.06 0 0 0-12 3.45q-4.83 3.45-4.83 8.51.24 3.9 5.52 7.13a77.84 77.84 0 0 0 14.72 6.44q37.95 13.56 37.95 36.8 0 16.32-11.84 25.3t-34.16 9a79.19 79.19 0 0 1-19.43-2.88q-11.12-2.78-18.05-7.85zm200.59-41.17h-77.28q3.45 29.9 35.65 29.9a49 49 0 0 0 16-2.42 135.32 135.32 0 0 0 16.9-7.47l7.82 18.86a70.85 70.85 0 0 1-41.17 12.88q-30.36 0-46.34-15.76t-16-42.89q0-17.49 6.56-30.71a48.49 48.49 0 0 1 18.86-20.58Q632.89 64 649.68 64q24.62 0 37.26 16.33T699.59 122zm-76.82-17.25h52q-2.07-12.88-8.51-19.55T649 86.1q-11 0-17.82 6.9t-8.41 19.32zm122.13 66.24h-25.76V67h17.25L741 80.35a81.2 81.2 0 0 1 21.16-12.42 58.3 58.3 0 0 1 21.62-4.6q19.54 0 28.29 11.61t8.74 31.86v71.76h-26v-70.15q0-23.23-17.25-23.23-14 0-32.66 15.41zM897.39 67.93l7.82 19.78h-28.06v53.13q0 9 4 14.37t12.08 5.41a28.54 28.54 0 0 0 11.5-2.76l7.15 19.14a34.45 34.45 0 0 1-9.55 4 41.24 41.24 0 0 1-11.15 1.73q-18.63 0-29.21-9.66t-10.58-27.83V87.71H836V67.93h15.41V40.56l25.76-5.06v32.43zm44.39-18.86a14.13 14.13 0 0 1-10.7-4.49 15.26 15.26 0 0 1-4.25-10.92A14.78 14.78 0 0 1 931.2 23a14.2 14.2 0 0 1 10.58-4.48A14.86 14.86 0 0 1 952.7 23a14.62 14.62 0 0 1 4.49 10.7 15.33 15.33 0 0 1-15.41 15.41zm-12.65 129.49V67h26v111.56zm62.79-83.49l-7.14-21.16q6-3.91 18.52-6.9t20.35-3a52.4 52.4 0 0 1 23.58 5.29 43.15 43.15 0 0 1 16.9 14.37 35.26 35.26 0 0 1 6.21 20.36v74.52h-17.25l-3.91-11.27a54.8 54.8 0 0 1-14.71 10.12 38.63 38.63 0 0 1-16.57 3.91q-19.32 0-29.32-9.66t-10-25.76q0-16.8 11.39-26t30-9.2h24.38q-.45-23.23-20.24-23.23-15.18.02-32.19 7.61zm9.19 50.83a14.54 14.54 0 0 0 4.37 10.46q4.38 4.48 12 4.49a32.53 32.53 0 0 0 14.27-3.45 45.22 45.22 0 0 0 12.88-9.43V128h-25.08q-8.5 0-13.45 5.17a17.77 17.77 0 0 0-4.99 12.73zm97.29 32.66V18.71l25.76-2.53v162.38zM286.29 374V217.64h90.62l3.68 20.24h-68.54v46.69h52l3.91 20.24h-55.91v49h74.52l3.91 20.19zm124.43 0V214.19l25.76-2.53V374zm152.03-48.95h-77.28q3.43 29.9 35.65 29.9a49 49 0 0 0 16-2.42 135.37 135.37 0 0 0 16.88-7.47l7.82 18.86a70.83 70.83 0 0 1-41.18 12.88q-30.34 0-46.34-15.76t-16-42.89q0-17.47 6.55-30.71a48.61 48.61 0 0 1 18.86-20.58q12.3-7.37 29.1-7.36 24.6 0 37.25 16.33t12.66 41.63zm-76.82-17.25h52q-2.07-12.89-8.51-19.55t-17.25-6.67q-11 0-17.82 6.9t-8.42 19.32zm257.25-38.18q8.63 10.81 8.62 30.36V374h-26v-70.11q0-11.5-3.56-17.37t-12.08-5.86a29.93 29.93 0 0 0-14 3.91 109.05 109.05 0 0 0-15.87 10.58 37.71 37.71 0 0 1 .23 4.83V374h-26v-70.11q0-11.5-3.56-17.37t-12.08-5.86q-12.2 0-30.82 15.41v78h-25.77V262.49h17.25l4.6 13.34a84.57 84.57 0 0 1 20.7-12.42q11-4.61 20.24-4.6 22.54 0 30.59 16.79a89.35 89.35 0 0 1 20.59-12.19q10.92-4.61 20.12-4.6 18.17 0 26.8 10.81zm131.67 55.43h-77.28q3.45 29.9 35.65 29.9a49 49 0 0 0 16-2.42 135.32 135.32 0 0 0 16.9-7.47l7.82 18.86a70.78 70.78 0 0 1-41.17 12.88q-30.36 0-46.34-15.76t-16-42.89q0-17.47 6.56-30.71a48.54 48.54 0 0 1 18.86-20.58q12.3-7.37 29.09-7.36 24.62 0 37.26 16.33t12.65 41.63zM798 307.8h52q-2.07-12.89-8.51-19.55t-17.25-6.67q-11 0-17.82 6.9T798 307.8zM920.16 374H894.4V262.49h17.25l4.6 13.34a81.76 81.76 0 0 1 21.16-12.42 58.26 58.26 0 0 1 21.62-4.6q19.54 0 28.29 11.61t8.74 31.86V374h-26v-70.11q0-23.24-17.25-23.23-14 0-32.66 15.41zm152.49-110.59l7.82 19.78h-28.06v53.13q0 9 4 14.37t12.08 5.41a28.54 28.54 0 0 0 11.5-2.76l7.13 19.09a34.45 34.45 0 0 1-9.55 4 41.24 41.24 0 0 1-11.15 1.73q-18.63 0-29.21-9.66t-10.58-27.83v-57.5h-15.41v-19.76h15.41V236l25.76-5.06v32.43zm25.52 102.81l7.82-17.94q15.87 7.59 29.67 7.59a32.07 32.07 0 0 0 14.95-3.22q6.21-3.22 6.21-8.74 0-10.12-22.08-17.25-36.79-12-36.8-34 0-15.4 11.5-24.27t31.28-8.85a73.05 73.05 0 0 1 18.75 3 60.15 60.15 0 0 1 18.28 8.05l-8 17.48a109.71 109.71 0 0 0-14.83-5.64 52.76 52.76 0 0 0-14.61-1.95 20.06 20.06 0 0 0-12 3.45q-4.83 3.45-4.83 8.51.22 3.92 5.52 7.13a76.91 76.91 0 0 0 14.72 6.44q37.95 13.57 38 36.8 0 16.33-11.84 25.3t-34.16 9a79.19 79.19 0 0 1-19.43-2.88q-11.22-2.94-18.12-8.01z"/></svg>