<svg xmlns="http://www.w3.org/2000/svg" width="16" height="16" viewBox="0 0 16 16"><path fill="#7b9ea6" d="M12.71 8.67a6.58 6.58 0 0 0-.59-1.07A39.58 39.58 0 0 1 9 2.09c-.23-.6-.48-1.21-.7-1.82a31.63 31.63 0 0 1-2.51 5.17A16.62 16.62 0 0 0 3.5 9.63a5.34 5.34 0 0 0 0 2.94 4.22 4.22 0 0 0 1.73 2.35 5.58 5.58 0 0 0 2.77.76 5.4 5.4 0 0 0 3.5-.88 4.4 4.4 0 0 0 1.43-2 5.41 5.41 0 0 0-.22-4.13zm-1.17 6.09s.35-.63-2.64-3.14A6.54 6.54 0 0 1 6.64 8.4C6.26 7.06 7 3.17 7 3.17a5.18 5.18 0 0 0 .28 3.14A4.83 4.83 0 0 0 8.35 8a17.64 17.64 0 0 1 2.37 2.81 7.58 7.58 0 0 1 .82 3.95z"/></svg>