<svg xmlns="http://www.w3.org/2000/svg" width="256" height="256" viewBox="0 0 256 256"><path d="M217.05 183.59L249 45.33l-159.51-1.1a2.68 2.68 0 0 0-2 0l-24.94-.18c-1.28-4.64-2.43-9-3.5-12.88-9-33.49-37.28-29.3-51-22.38A26 26 0 0 0 3 23.47c.71 2.83 5.66 4.3 7.67 3.3a34.66 34.66 0 0 1 15.62-3.07c11.79.2 13.82-1.82 17.34 11.31C55.16 78 82.49 171.75 84.84 179.8l1.07 3.77H86l6.88 21.33 119.23-.53c2.13 0 3.85-2.45 3.84-5.46s-1.72-5.4-3.84-5.41l-106 .51-3.36-10.43zm1-75.22H200l3.18-23h20.26zM210 143.58h-14.92l3.36-24.32h17.14zm-50.25 29.15l-.78-18.27h27.18l-2.53 18.27zm-1.22-29.15l-1-24.32H191l-3.37 24.32zm-74.3-24.32h21l7.27 24.32H91.09zm29.36 0h36.19l1 24.32h-30zm79-10.87H157l-1-23h39.7zm-37-33.81l-.81-19 45 .32-2.57 18.65zm-7.72 0H100.2l-5.8-19.41 52.62.39zm.47 10.87l1 22.94h-39l-6.85-22.94zM102 108.39H81.1l-6.52-22.94h20.51zm-7.74 46.07h21.5l5.48 18.27H99.43zm29.86 0h27.17l.78 18.27h-22.56zm67 18.27l2.53-18.27h13.87l-4.22 18.27zm34.86-98.15h-21.34L207.21 56l23 .17zM86 55.1l5.83 19.48H71.47L65.89 55zm19.82 156.4c-7.73 0-14 8.84-14 19.75s6.27 19.75 14 19.75 14-8.84 14-19.75c-.01-10.91-6.28-19.75-14-19.75zm0 28.64c-3.48 0-6.29-4-6.29-8.88s2.81-8.88 6.29-8.88 6.29 4 6.29 8.88c-.01 4.9-2.82 8.87-6.29 8.88zm80.31-28.64c-7.73 0-14 8.84-14 19.75s6.26 19.75 14 19.75 14-8.84 14-19.75c-.01-10.91-6.27-19.75-14-19.75zm0 28.64c-3.48 0-6.29-4-6.29-8.88s2.81-8.88 6.29-8.88 6.29 4 6.29 8.88c-.01 4.9-2.82 8.87-6.29 8.88z"/></svg>