<svg xmlns="http://www.w3.org/2000/svg" width="256" height="256" viewBox="0 0 256 256"><path d="M208.94 192.41a4.71 4.71 0 1 1-4.7-4.91 4.69 4.69 0 0 1 4.7 4.91zM78.36 187.5a4.57 4.57 0 0 0-4.7 4.91c0 2.74 1.72 4.92 4.7 4.92 2.73 0 4.58-2.06 4.58-4.92s-1.85-4.91-4.58-4.91zm49.37-.13a3.89 3.89 0 0 0-4 3.66h8c-.35-2.4-1.82-3.66-4-3.66zm45.29.13c-2.86 0-4.58 2.18-4.58 4.91s1.72 4.92 4.58 4.92a4.57 4.57 0 0 0 4.7-4.92 4.64 4.64 0 0 0-4.72-4.91zm44.49 11c0 .13.13.21.13.47s-.13.21-.13.46a2.09 2.09 0 0 0-.21.34.55.55 0 0 1-.46.21c-.13.12-.21.12-.46.12a.9.9 0 0 1-.47-.12c-.12 0-.21-.13-.33-.21s-.21-.21-.21-.34a.75.75 0 0 1-.13-.46c0-.21 0-.34.13-.47a.76.76 0 0 1 .21-.46c.12-.12.21-.12.33-.21a.81.81 0 0 1 .47-.12.58.58 0 0 1 .46.12c.21.13.34.13.46.21s.09.21.21.42zm-.92.59c.21 0 .21-.12.33-.12a.51.51 0 0 0 0-.68c-.12 0-.21-.12-.46-.12h-.67v1.47h.33V199h.13l.46.59h.34l-.46-.55zm31.47-145V202a20.18 20.18 0 0 1-20.17 20.17H26.22A20.17 20.17 0 0 1 6.06 202V54.06A20.17 20.17 0 0 1 26.22 33.9h201.67a20.17 20.17 0 0 1 20.17 20.16zM32.94 112.71a58.17 58.17 0 0 0 90.33 48.49c-30.62-24.92-30.41-71.93 0-96.84a58.16 58.16 0 0 0-90.33 48.35zm94.12 45.72c29.62-23.11 29.49-68.15 0-91.38-29.5 23.23-29.62 68.31 0 91.38zm-59.79 32c0-3.65-2.4-6-6.18-6.17a6 6 0 0 0-5.37 2.74 5.56 5.56 0 0 0-5.13-2.73 5.32 5.32 0 0 0-4.45 2.26v-1.84h-3.45v15.42h3.45c0-8-1-12.69 3.78-12.69 4.28 0 3.44 4.28 3.44 12.69h3.32c0-7.69-1-12.69 3.78-12.69 4.29 0 3.45 4.2 3.45 12.69h3.44v-9.67zm18.86-5.75h-3.32v1.84a6.06 6.06 0 0 0-4.91-2.26c-4.33 0-7.65 3.44-7.65 8.1s3.32 8.11 7.65 8.11a5.79 5.79 0 0 0 4.91-2.27v1.94h3.32zm17 10.75c0-6.3-9.62-3.44-9.62-6.38 0-2.4 5-2 7.77-.47l1.39-2.73c-4-2.56-12.69-2.52-12.69 3.45s9.62 3.48 9.62 6.3c0 2.65-5.67 2.44-8.7.34l-1.47 2.64c4.71 3.2 13.7 2.52 13.7-3.15zm14.87 3.96l-.92-2.86c-1.6.88-5.13 1.85-5.13-1.72v-7h5.51v-3.11H112V180h-3.44v4.71h-3.2v3.06h3.2v7c0 7.39 7.27 6.05 9.49 4.58zm5.59-5.63h11.55c0-6.81-3.1-9.5-7.31-9.5-4.45 0-7.64 3.32-7.64 8.11 0 8.62 9.49 10 14.2 6l-1.6-2.52c-3.26 2.66-8.21 2.4-9.18-2.09zm24.83-9a4.94 4.94 0 0 0-6.39 1.84v-1.84h-3.44v15.42h3.44v-8.7c0-4.88 4-4.24 5.38-3.53l1-3.19zm4.45 7.68c0-4.78 4.88-6.34 8.7-3.52l1.6-2.74c-4.88-3.82-13.74-1.72-13.74 6.31 0 8.32 9.41 10 13.74 6.3l-1.6-2.73c-3.84 2.7-8.68 1.06-8.68-3.65zm28-7.68h-3.45v1.84c-3.48-4.62-12.56-2-12.56 5.84 0 8.07 9.41 10.38 12.56 5.84v1.94h3.45zm14.16 0c-1-.51-4.63-1.22-6.39 1.84v-1.84h-3.32v15.42h3.32v-8.7c0-4.62 3.78-4.33 5.38-3.53l1-3.19zm16.97-6.29h-3.32v8.1c-3.45-4.57-12.56-2.14-12.56 5.84 0 8.16 9.45 10.34 12.56 5.84v1.94H212v-21.72zm3.19-31.56v1.94h.34v-1.94h.8v-.33h-1.93v.33zm2.77 52a1.37 1.37 0 0 0-.12-.68c-.13-.12-.21-.33-.34-.46s-.33-.21-.46-.33-.46-.13-.67-.13a4.62 4.62 0 0 1-.59.13 2 2 0 0 0-.46.33.68.68 0 0 0-.34.46 1.27 1.27 0 0 0-.13.68 1.22 1.22 0 0 0 .13.59.68.68 0 0 0 .34.46 1.4 1.4 0 0 0 .46.33 1.11 1.11 0 0 0 .59.13 1.24 1.24 0 0 0 .67-.13c.13-.12.34-.21.46-.33s.21-.34.34-.46a1.31 1.31 0 0 0 .16-.57zm1.35-52.39h-.59l-.67 1.47-.67-1.47h-.59v2.26h.33v-1.72l.68 1.47h.46l.59-1.47v1.72h.46zm1.85-33.83a58.17 58.17 0 0 0-90.33-48.4c30.29 24.92 30.75 72.06 0 96.85a58.17 58.17 0 0 0 90.33-48.45z"/></svg>