<svg xmlns="http://www.w3.org/2000/svg" width="256" height="256" viewBox="0 0 256 256"><path d="M84.89 128.93a9 9 0 0 1-9.24 9c-3.87 0-6.73-2.18-6.73-6.3a9.11 9.11 0 0 1 9.08-9.21c4 0 6.89 2.39 6.89 6.51zm-44.45-20.37h-2a1.31 1.31 0 0 0-1.34 1.13l-1.81 11.22 3.45-.13c4.62 0 8.19-.63 9-6 1.02-5.59-2.55-6.22-7.3-6.22zm119.32 0h-1.89a1.24 1.24 0 0 0-1.35 1.13l-1.76 11.22 3.36-.13c5.46 0 9.24-1.26 9.24-7.56 0-4.45-4-4.66-7.6-4.66zm88.86-54.5V202a20.18 20.18 0 0 1-20.17 20.17H26.78A20.17 20.17 0 0 1 6.62 202V54.06A20.17 20.17 0 0 1 26.78 33.9h201.67a20.17 20.17 0 0 1 20.17 20.16zM60.52 111c0-8.82-6.81-11.76-14.58-11.76h-16.8a2.23 2.23 0 0 0-2.19 2l-6.89 42.9a1.45 1.45 0 0 0 1.35 1.68h8a2.69 2.69 0 0 0 2.31-2.4l1.89-11.17c.42-3 5.55-2 7.56-2 12 0 19.37-7.14 19.37-19.24zm35.38 3.7h-8c-1.59 0-1.68 2.31-1.76 3.44-2.44-3.57-6-4.2-10-4.2-10.29 0-18.15 9-18.15 19 0 8.19 5.13 13.53 13.32 13.53a16.35 16.35 0 0 0 11.13-5 11.19 11.19 0 0 0-.42 2.6c0 1 .42 1.69 1.35 1.69h7.22c1.14 0 2.11-1.22 2.32-2.4l4.28-27a1.42 1.42 0 0 0-1.34-1.64zm17 41.13l26.76-38.91a.86.86 0 0 0 .21-.71 1.5 1.5 0 0 0-1.34-1.47h-8.07a2.38 2.38 0 0 0-1.89 1l-11.13 16.38-4.62-15.75a2.56 2.56 0 0 0-2.31-1.68h-7.86a1.5 1.5 0 0 0-1.34 1.47c0 .5 8.19 23.86 8.9 26.09-1.13 1.6-8.61 12-8.61 13.28a1.35 1.35 0 0 0 1.34 1.34H111a2.46 2.46 0 0 0 1.89-1.09zM179.84 111c0-8.82-6.81-11.76-14.58-11.76h-16.68a2.32 2.32 0 0 0-2.31 2L139.46 144a1.51 1.51 0 0 0 1.35 1.69h8.61a1.8 1.8 0 0 0 1.68-1.35l1.9-12.17c.42-3 5.55-2 7.57-2 11.93 0 19.28-7.14 19.28-19.24zm35.38 3.7h-8c-1.59 0-1.68 2.31-1.8 3.44-2.31-3.57-5.89-4.2-10-4.2-10.29 0-18.15 9-18.15 19 0 8.19 5.13 13.53 13.32 13.53a15.89 15.89 0 0 0 11.13-5 19.54 19.54 0 0 0-.42 2.6c0 1 .42 1.69 1.35 1.69H210c1.14 0 2.1-1.22 2.31-2.4l4.29-27a1.42 1.42 0 0 0-1.34-1.64zm19.95-14a1.41 1.41 0 0 0-1.34-1.47h-7.77a1.39 1.39 0 0 0-1.35 1.13L217.9 144l-.12.21a1.49 1.49 0 0 0 1.47 1.48h6.93a2.62 2.62 0 0 0 2.19-2.4l6.8-42.52v-.12zm-37.81 21.76a9.08 9.08 0 0 0-9.12 9.24c0 4.08 2.94 6.3 6.81 6.3a9 9 0 0 0 9.12-9c.04-4.19-2.9-6.58-6.81-6.58z"/></svg>