<svg xmlns="http://www.w3.org/2000/svg" width="256" height="256" viewBox="0 0 256 256"><defs><clipPath id="a"><path fill="none" d="M9.71 8h234.7v234.7H9.71z"/></clipPath></defs><g clip-path="url(#a)" opacity=".5"><path fill="none" d="M9.71 8h234.7v234.7H9.71z"/><path fill="#f2f2e9" d="M43.07 80.45a9.77 9.77 0 0 0 9.77 9.78h156.47a9.78 9.78 0 0 0 0-19.56H52.84a9.77 9.77 0 0 0-9.77 9.78zm9.77 58.68h156.47a10.52 10.52 0 0 0 9.78-9.78 10.51 10.51 0 0 0-9.78-9.78H52.84a10.5 10.5 0 0 0-9.77 9.78 10.51 10.51 0 0 0 9.77 9.78zm0 48.89h156.47a9.78 9.78 0 0 0 0-19.56H52.84a9.78 9.78 0 0 0 0 19.56z"/></g></svg>