<svg xmlns="http://www.w3.org/2000/svg" width="256" height="256" viewBox="0 0 256 256"><path fill="#f2f2e9" d="M184.31 144.79l-7.15-2.95a117.66 117.66 0 0 0 11.44-51.55C188.6 41.56 161.29 2 127.5 2S66.38 41.49 66.38 90.29a117.51 117.51 0 0 0 11.47 51.51l-7.16 2.95c-22.88 9.45-30.1 39.52-30.1 57.68V215c0 21 11.84 38.12 26.39 38.12H188c14.55 0 26.39-17.1 26.39-38.12v-12.6c0-17.77-7-48.14-30.12-57.67zM127.5 25.51c24.76 0 44.83 29 44.83 64.75S152.3 155 127.5 155s-44.82-29-44.82-64.74 20.07-64.75 44.82-64.75zM198.13 215c0 8-4.52 14.57-10.09 14.57H67c-5.58 0-10.1-6.53-10.1-14.57v-12.57c0-16.27 7.47-30.56 18.29-35l15.67-6.46a51.09 51.09 0 0 0 36.67 17.66 51.09 51.09 0 0 0 36.71-17.67l15.67 6.46c10.83 4.47 18.28 18.77 18.28 35z"/></svg>