<svg xmlns="http://www.w3.org/2000/svg" width="256" height="256" viewBox="0 0 256 256"><path fill="#332821" d="M205.12 116.41s3.2 15.63 3.91 18.91H195c1.39-3.74 6.72-18.28 6.72-18.28s1.39-3.82 2.23-6.26l1.17 5.63zm44.5-63.57v147.89a20.18 20.18 0 0 1-20.17 20.17H27.78a20.17 20.17 0 0 1-20.16-20.17V52.84a20.17 20.17 0 0 1 20.16-20.16h201.67a20.17 20.17 0 0 1 20.17 20.16zM71.69 158.38l26.55-65.2H80.38l-16.51 44.53-1.8-9-5.89-30c-1-4.16-3.94-5.34-7.64-5.5H21.36l-.3 1.3a66.89 66.89 0 0 1 17.73 7.18l15 56.72zm39.66.09l10.59-65.29h-16.89L94.5 158.47zm58.78-21.35c.08-7.43-4.46-13.1-14.16-17.77-5.93-3-9.54-5-9.54-8.07.08-2.77 3.07-5.63 9.71-5.63a29.09 29.09 0 0 1 12.56 2.48l1.51.72 2.31-14.12A42 42 0 0 0 157.4 92c-16.68 0-28.41 8.91-28.49 21.59-.13 9.37 8.4 14.58 14.79 17.73s8.74 5.3 8.74 8.11c-.09 4.37-5.3 6.39-10.13 6.39-6.72 0-10.33-1.05-15.84-3.49l-2.22-1-2.36 14.66c4 1.81 11.26 3.41 18.83 3.49 17.73 0 29.28-8.74 29.41-22.27zm59.32 21.35l-13.61-65.29h-13.07c-4 0-7.1 1.17-8.82 5.42l-25.08 59.87h17.73s2.89-8.07 3.53-9.79h21.67c.51 2.31 2 9.79 2 9.79z"/></svg>